<?xml version="1.0" standalone="no"?>
<!DOCTYPE svg PUBLIC "-//W3C//DTD SVG 20010904//EN"
 "http://www.w3.org/TR/2001/REC-SVG-20010904/DTD/svg10.dtd">
<svg version="1.0" xmlns="http://www.w3.org/2000/svg"
 width="707.000000pt" height="1200.000000pt" viewBox="0 0 707.000000 1200.000000"
 preserveAspectRatio="xMidYMid meet">

<g transform="translate(0.000000,1200.000000) scale(0.100000,-0.100000)"
fill="#000000" stroke="none">
<path d="M0 11970 c0 -27 2 -30 19 -20 23 12 171 14 171 2 0 -4 -6 -14 -12
-22 -7 -8 -1 -4 13 8 24 21 34 23 124 20 l98 -3 -66 -55 c-68 -57 -102 -101
-45 -58 137 102 200 137 197 111 0 -5 -32 -30 -71 -58 -60 -42 -202 -156 -218
-175 -3 -3 -27 -24 -55 -45 -69 -56 -155 -137 -155 -147 0 -12 20 -10 35 5 31
29 57 48 61 44 3 -2 -18 -31 -46 -63 l-50 -59 0 -87 c0 -78 3 -90 24 -112 13
-14 33 -51 45 -82 11 -31 46 -96 76 -146 30 -49 55 -95 55 -103 0 -7 7 -18 15
-25 8 -7 13 -15 11 -19 -2 -3 2 -15 10 -26 12 -16 14 -17 14 -2 0 9 5 17 10
17 6 0 10 -5 10 -12 0 -6 11 -1 25 12 24 22 130 57 205 67 l35 4 -25 -15 c-14
-8 -32 -19 -40 -23 -59 -29 -162 -141 -199 -218 -110 -227 -140 -335 -111
-397 15 -33 45 -39 113 -23 81 20 211 88 332 175 57 41 135 88 120 73 -11 -11
-99 -75 -232 -166 -93 -64 -249 -148 -310 -167 -24 -7 -43 -17 -43 -23 0 -5
-7 -7 -15 -3 -9 3 -15 0 -15 -8 0 -8 -3 -22 -7 -31 -5 -15 -1 -16 38 -10 51 8
158 43 177 58 7 5 15 7 18 5 6 -6 -69 -59 -100 -71 -10 -4 -16 -10 -13 -14 17
-17 202 94 442 267 209 150 364 251 525 343 135 76 253 145 296 174 66 44 178
191 188 249 6 31 2 27 44 48 35 18 42 17 46 -6 1 -7 5 -18 9 -24 20 -33 1 -67
-82 -147 -47 -45 -97 -90 -111 -99 -31 -22 -24 -23 25 -2 55 23 64 12 12 -15
-25 -13 -58 -37 -74 -53 l-28 -30 60 33 c33 18 77 45 98 60 21 15 73 42 115
59 100 41 165 73 173 83 4 5 0 41 -7 80 -9 48 -12 102 -8 163 8 116 -2 228
-21 220 -8 -2 -18 1 -23 7 -15 19 -108 294 -128 376 -20 89 -19 91 82 91 l71
0 56 -157 c55 -156 69 -201 122 -378 39 -129 140 -405 191 -522 8 -17 14 -37
14 -45 0 -8 4 -18 8 -23 5 -6 17 -32 27 -60 10 -27 28 -66 40 -85 27 -42 92
-110 105 -110 6 0 36 -26 68 -57 66 -66 110 -147 140 -263 11 -41 37 -129 57
-195 32 -103 37 -128 31 -180 -3 -33 -9 -71 -12 -84 -13 -45 15 -12 43 50 14
32 30 59 35 59 4 0 8 8 8 18 0 10 4 22 8 28 5 5 15 25 22 44 52 139 149 284
233 348 89 68 123 80 274 97 215 25 280 40 340 81 149 102 279 383 343 741 34
188 38 461 7 450 -6 -2 -20 5 -31 15 -28 25 -42 8 -51 -60 -22 -188 -86 -406
-170 -577 -48 -100 -62 -119 -150 -205 -53 -52 -142 -146 -197 -207 -81 -91
-119 -124 -192 -169 -50 -31 -116 -77 -146 -101 -37 -31 -56 -41 -59 -32 -5
16 -27 39 -36 39 -18 0 -69 46 -80 72 l-12 30 -13 -34 c-8 -18 -27 -54 -44
-80 l-30 -47 -29 17 c-25 15 -67 87 -108 187 -4 11 -17 40 -27 65 -11 25 -28
70 -37 100 -9 30 -19 62 -23 70 -3 8 -4 19 -3 23 1 5 -5 23 -13 40 -8 18 -17
43 -20 57 -29 129 -38 166 -48 177 -8 9 -7 13 2 13 9 0 8 7 -4 25 -9 13 -16
36 -16 50 0 15 -11 36 -26 50 -14 13 -26 33 -27 44 -1 12 -7 21 -15 21 -7 0
-11 4 -8 9 8 12 -86 23 -97 12 -5 -5 -16 -7 -25 -3 -12 4 -14 1 -9 -13 7 -15
3 -17 -25 -11 -62 12 -113 86 -176 251 -17 44 -48 127 -70 185 -22 58 -52 130
-66 161 -13 31 -22 60 -19 63 4 3 93 6 198 6 l192 0 87 -154 c105 -184 192
-316 289 -439 94 -120 127 -164 127 -172 0 -7 51 -74 88 -115 12 -13 22 -29
22 -35 0 -6 9 -18 20 -28 11 -9 20 -23 20 -31 0 -8 6 -16 13 -19 6 -3 21 -22
32 -43 10 -22 25 -47 33 -56 8 -10 11 -26 7 -40 -5 -19 -4 -20 5 -8 10 12 11
11 7 -9 -6 -25 28 -65 67 -77 21 -7 76 -61 76 -76 0 -4 6 -7 13 -5 6 1 11 -5
9 -13 -2 -8 12 3 32 25 39 45 43 55 21 55 -16 0 -105 77 -105 91 0 18 -144
200 -254 319 -22 25 -54 62 -69 83 -42 55 -14 48 111 -30 76 -47 133 -94 197
-159 124 -126 160 -148 229 -142 66 6 153 58 238 145 90 93 126 159 159 292
32 134 68 402 72 541 l2 95 73 2 c74 1 74 1 88 -30 l14 -32 -2 29 c-3 28 0 30
34 34 42 4 45 0 58 -65 55 -259 51 -513 -12 -788 -11 -49 -25 -118 -31 -152
-6 -35 -14 -63 -19 -63 -4 0 -8 6 -8 13 0 6 -14 -19 -31 -56 -80 -180 -182
-349 -242 -400 -28 -25 -60 -59 -70 -76 l-18 -31 30 0 c45 0 71 14 124 65 52
50 59 51 25 1 -32 -45 -95 -99 -148 -126 -68 -35 -216 -39 -382 -11 -154 27
-181 21 -186 -42 -4 -49 -18 -47 -32 4 -8 30 -16 39 -28 37 -10 -2 -16 -11
-14 -22 3 -18 2 -18 -13 -3 -23 24 -62 32 -80 17 -28 -24 -104 -155 -135 -235
-42 -108 -53 -172 -90 -505 -44 -398 -160 -782 -322 -1065 -61 -107 -150 -242
-249 -380 -70 -97 -149 -220 -149 -231 0 -19 -111 -148 -150 -173 -78 -51 -77
-51 -85 24 -4 36 -5 83 -1 105 4 24 2 41 -5 46 -7 4 -9 22 -6 45 3 26 -1 50
-12 72 l-17 34 42 27 c82 52 192 187 297 364 34 56 69 112 79 122 10 11 18 22
18 24 0 3 17 34 38 68 21 35 59 110 86 168 26 58 50 107 53 110 10 9 -6 -61
-22 -93 -17 -37 -45 -117 -44 -126 1 -13 63 128 96 219 55 150 102 290 98 290
-5 0 -45 -85 -45 -97 0 -4 -7 -17 -15 -27 -14 -18 -14 -14 -8 44 4 46 3 61 -5
56 -6 -4 -22 -2 -34 5 -19 10 -24 9 -36 -9 -16 -25 -29 -20 -103 40 -61 49
-115 62 -209 49 -41 -5 -80 -17 -89 -25 -10 -10 -11 -16 -3 -16 6 0 16 -9 22
-21 9 -17 8 -23 -7 -34 -15 -11 -22 -11 -45 1 -41 21 -54 17 -84 -21 -15 -20
-52 -48 -82 -63 -30 -14 -72 -47 -94 -72 l-40 -45 35 -8 c28 -7 34 -12 30 -28
-7 -24 2 -24 34 0 28 22 49 18 58 -10 8 -25 36 -21 50 7 12 25 66 87 84 98 22
14 -10 -38 -51 -83 -30 -32 -38 -48 -38 -78 0 -47 -23 -83 -50 -78 -11 2 -23
-2 -27 -9 -11 -19 -35 -25 -55 -14 -12 5 -18 5 -18 -2 0 -5 6 -10 13 -10 9 0
8 -3 -2 -9 -10 -7 -11 -13 -2 -27 6 -11 11 -13 11 -6 0 9 6 7 20 -5 17 -17 18
-23 8 -63 -7 -25 -18 -51 -25 -58 -7 -7 -13 -17 -13 -21 0 -4 -51 -59 -114
-123 -86 -86 -117 -126 -127 -156 -14 -49 -5 -103 21 -127 25 -23 25 -37 1
-52 -38 -24 -45 -97 -54 -573 -2 -79 -4 -85 -27 -97 -95 -47 -195 -93 -206
-93 -9 0 -7 10 6 38 10 20 26 63 35 95 16 55 16 59 -1 78 -21 23 -25 23 -50 4
-16 -13 -17 -16 -4 -25 13 -9 12 -10 -4 -8 -13 2 -22 -6 -29 -27 -22 -64 -134
-205 -164 -205 -6 0 -13 -4 -15 -9 -8 -20 -199 -116 -340 -171 -238 -91 -358
-144 -530 -232 -139 -72 -158 -85 -158 -107 0 -22 1 -23 18 -9 34 30 225 140
320 185 54 24 196 82 317 128 211 80 343 132 580 228 87 35 415 191 578 273
38 20 34 8 -5 -16 -18 -11 -29 -20 -24 -20 6 0 -8 -13 -30 -28 -48 -35 -154
-95 -154 -88 0 3 36 26 81 52 88 51 104 72 18 25 -30 -16 -106 -57 -169 -90
-63 -33 -109 -61 -102 -61 7 0 31 9 53 21 23 11 43 18 45 16 3 -3 -17 -16 -43
-29 -26 -13 -86 -46 -132 -72 -246 -137 -529 -266 -746 -341 -44 -15 -89 -31
-100 -36 -11 -5 -51 -20 -88 -34 -80 -30 -175 -76 -310 -152 -94 -53 -114 -69
-104 -79 5 -5 267 126 277 137 8 11 263 89 285 88 23 -1 21 -2 -135 -49 -57
-18 -161 -62 -230 -97 -69 -36 -142 -74 -162 -84 -26 -13 -38 -26 -38 -40 0
-13 5 -19 13 -16 6 3 57 24 112 48 106 45 197 64 226 48 17 -9 17 -12 -3 -67
-37 -104 -44 -120 -54 -133 -6 -8 -25 -43 -43 -79 -19 -36 -40 -70 -47 -76 -8
-6 -14 -14 -14 -17 0 -3 -24 -41 -54 -84 -29 -43 -56 -88 -60 -100 -4 -12 -13
-24 -21 -27 -8 -3 -19 -23 -25 -45 -6 -23 -15 -41 -20 -41 -5 0 -9 -172 -9
-402 l-1 -403 34 55 c19 30 47 77 62 103 16 27 44 71 61 98 18 27 33 51 33 53
0 3 25 47 55 99 30 51 55 99 55 105 0 7 4 12 9 12 5 0 14 12 21 28 13 33 43
87 57 104 6 7 14 24 18 38 4 14 18 41 30 60 12 19 28 52 36 73 7 20 17 37 21
37 4 0 8 5 8 10 0 12 15 43 81 170 64 122 135 283 178 407 63 179 125 266 246
347 80 53 74 61 -12 13 -54 -31 -74 -40 -163 -80 -105 -48 -251 -83 -235 -57
3 6 19 10 34 10 15 0 31 4 37 9 5 5 27 14 49 21 55 17 231 106 405 204 162 92
286 160 535 296 411 225 515 283 510 289 -7 6 152 101 365 219 25 14 50 28 55
33 16 12 112 52 100 41 -13 -11 -230 -138 -322 -188 -39 -21 -69 -42 -67 -46
2 -3 -1 -10 -7 -14 -8 -4 -9 -3 -5 4 12 19 -9 14 -28 -7 -10 -11 -24 -17 -32
-14 -9 3 -14 0 -12 -6 2 -7 -53 -44 -122 -83 -69 -38 -145 -82 -170 -96 -25
-14 -74 -41 -110 -60 -206 -113 -697 -398 -720 -419 -19 -18 3 -18 33 0 128
79 228 128 247 122 12 -4 26 -2 33 3 7 5 21 12 32 15 11 4 -2 -12 -30 -35 -80
-68 -185 -177 -185 -193 0 -8 36 13 54 31 30 29 320 233 408 286 49 29 101 61
118 71 16 11 30 16 30 13 0 -2 -42 -33 -92 -67 -219 -147 -472 -380 -613 -564
-38 -49 -72 -92 -75 -95 -17 -16 -140 -223 -140 -236 0 -15 21 3 48 40 36 50
35 48 174 210 108 125 275 302 262 276 -4 -8 -33 -44 -64 -80 -136 -159 -290
-379 -439 -626 -56 -93 -106 -176 -111 -184 -28 -46 -198 -345 -228 -400 -19
-36 -49 -90 -67 -120 -44 -74 -245 -457 -245 -466 0 -2 4 -4 9 -4 6 0 21 23
35 50 14 28 39 70 54 93 16 23 33 53 37 67 4 14 16 32 26 41 11 9 19 21 19 28
0 6 5 11 11 11 6 0 0 -19 -14 -42 -13 -24 -50 -92 -82 -153 -32 -60 -66 -122
-76 -137 -11 -14 -19 -29 -19 -32 0 -3 -19 -38 -43 -78 -24 -40 -62 -104 -84
-143 -22 -38 -56 -98 -76 -133 -35 -60 -37 -68 -37 -150 l0 -87 43 80 c24 44
68 125 97 180 48 90 112 204 195 350 15 28 38 66 50 85 12 19 40 69 62 110 63
117 95 173 111 195 21 29 14 15 -64 -140 -63 -124 -93 -181 -204 -380 -16 -27
-86 -164 -157 -304 l-128 -254 -2 -81 -3 -81 26 70 c13 39 29 81 33 95 29 82
236 500 301 605 24 39 85 158 137 265 190 391 225 461 287 567 78 134 139 227
238 363 42 58 90 123 106 145 234 324 358 475 428 523 54 37 108 40 72 4 -29
-29 11 -8 49 26 59 52 132 90 143 73 4 -8 10 -9 14 -3 5 8 48 21 91 27 19 3
35 -18 35 -46 0 -15 5 -31 10 -34 6 -4 8 -11 5 -16 -9 -14 28 3 49 23 66 60 6
-43 -104 -182 -178 -225 -295 -409 -502 -790 -14 -25 -44 -79 -68 -120 -24
-41 -56 -97 -72 -125 -28 -51 -98 -191 -148 -300 -15 -33 -41 -91 -59 -128
-34 -74 -36 -84 -21 -89 5 -1 6 -14 3 -28 l-7 -25 -6 25 c-6 21 -16 5 -70
-105 -34 -71 -108 -222 -164 -335 -140 -282 -197 -412 -241 -550 -10 -30 -21
-59 -25 -65 -3 -5 -12 -29 -19 -52 -6 -24 -17 -43 -22 -43 -6 0 -9 -6 -6 -14
3 -8 1 -16 -4 -18 -16 -5 -60 -138 -65 -197 -9 -110 -52 -272 -147 -544 -24
-70 -65 -117 -101 -117 -32 0 -52 30 -94 139 -16 42 -33 85 -37 96 -5 11 -9
22 -10 25 -1 3 -4 12 -8 20 -3 8 -10 35 -15 60 -8 36 -10 15 -11 -107 -1 -149
0 -154 28 -213 16 -33 43 -77 60 -99 35 -44 39 -61 14 -61 -35 0 -63 13 -63
27 0 12 -3 13 -14 4 -15 -13 -11 -38 15 -96 40 -90 125 -191 153 -182 6 2 19
-9 29 -25 39 -64 66 -45 117 77 88 216 116 317 165 590 7 44 23 127 34 185 11
58 27 161 36 230 9 69 18 131 21 139 2 7 0 19 -6 26 -9 11 47 235 85 333 7 21
32 87 54 147 22 61 54 144 71 185 17 41 35 84 39 95 27 68 52 115 59 111 4 -2
8 8 8 22 1 15 18 63 39 107 58 126 65 142 65 154 0 6 5 11 11 11 7 0 8 -7 4
-18 -21 -49 -44 -116 -42 -118 4 -4 20 27 142 281 339 702 641 1204 861 1431
119 122 637 579 839 739 27 22 56 46 63 53 7 6 16 12 20 12 4 0 -18 -22 -48
-48 -46 -39 -240 -213 -395 -353 -22 -20 -85 -76 -140 -124 -239 -209 -305
-270 -362 -333 -102 -115 -210 -273 -300 -442 -97 -180 -133 -250 -129 -250 6
0 91 131 191 295 214 351 273 418 639 724 429 359 634 536 760 654 65 61 113
101 107 88 -16 -29 -160 -174 -271 -272 -324 -288 -436 -389 -427 -389 15 0
139 94 285 214 86 71 94 76 88 50 -7 -31 -109 -136 -216 -222 -36 -29 -74 -61
-85 -71 -11 -9 -57 -45 -103 -80 -46 -35 -81 -65 -79 -68 3 -2 32 12 64 33 51
33 105 75 288 228 85 71 436 386 519 465 43 42 115 119 160 171 44 52 95 111
111 130 75 87 155 166 210 208 68 51 222 127 338 166 156 53 197 81 197 139 0
63 -101 118 -254 139 -105 14 -290 4 -386 -20 -171 -44 -377 -138 -546 -249
-31 -20 -58 -31 -68 -27 -10 4 -18 0 -22 -10 -6 -16 -98 -75 -219 -141 l-70
-38 40 38 c22 21 67 54 100 73 33 20 92 57 132 84 77 51 101 62 64 27 -45 -42
-10 -29 76 29 205 137 242 157 397 213 94 34 119 41 281 69 76 13 130 28 147
40 51 37 137 23 218 -35 25 -18 86 -54 135 -80 102 -53 141 -56 227 -17 59 28
58 28 58 -7 0 -78 -186 -188 -391 -231 -180 -38 -343 -108 -417 -179 -21 -20
-34 -33 -28 -28 5 4 17 7 25 7 8 0 -9 -21 -39 -47 -29 -27 -59 -47 -65 -45 -6
1 -45 -35 -86 -80 -162 -179 -231 -247 -389 -386 -143 -126 -366 -326 -480
-432 l-35 -32 38 21 c20 11 43 25 50 31 59 52 207 147 207 134 0 -11 -208
-214 -220 -214 -5 0 -10 -4 -10 -10 0 -18 28 -10 51 15 13 13 30 25 37 25 6 0
12 4 12 9 0 5 14 20 32 32 17 13 28 17 24 10 -13 -20 -168 -168 -206 -196 -19
-14 -36 -29 -39 -34 -10 -15 -114 -69 -196 -101 -113 -45 -240 -124 -308 -193
-94 -95 -156 -203 -252 -442 -47 -117 -120 -283 -279 -635 -62 -138 -123 -249
-211 -385 -36 -55 -91 -143 -121 -195 -31 -52 -62 -102 -69 -110 -12 -15 -35
-57 -180 -330 -142 -269 -234 -485 -271 -637 -25 -104 -23 -270 4 -366 54
-192 94 -150 56 59 -25 143 -10 253 63 444 63 168 151 330 297 550 79 118 172
262 206 320 35 58 94 150 130 205 121 181 190 313 255 490 99 272 120 328 160
430 23 61 59 154 80 208 112 300 232 438 392 452 21 1 45 5 53 8 194 64 303
131 465 286 208 199 236 216 65 37 -176 -183 -337 -291 -525 -352 -158 -51
-194 -70 -261 -140 -63 -65 -120 -166 -179 -319 -15 -38 -38 -97 -50 -130 -13
-33 -60 -161 -104 -285 -130 -368 -186 -494 -333 -748 -61 -107 -93 -154 -258
-377 -218 -295 -294 -428 -381 -667 -33 -91 -54 -215 -44 -255 6 -24 12 -9 40
92 80 290 214 548 392 755 309 360 336 401 468 715 68 161 127 315 192 500 19
55 41 114 48 130 8 17 34 80 59 142 123 306 194 391 386 464 19 8 85 39 145
69 166 84 268 156 495 349 170 144 165 139 158 146 -3 3 -53 -34 -112 -82
-185 -152 -288 -234 -310 -245 -12 -6 -1 7 24 28 25 22 92 83 150 138 117 109
207 183 291 238 68 44 184 103 221 112 42 10 43 -11 1 -30 -35 -16 -133 -75
-133 -80 0 -4 135 53 190 81 40 20 75 29 130 32 69 5 82 2 163 -30 49 -20 113
-52 142 -72 110 -73 237 -123 328 -130 27 -2 51 -6 54 -9 9 -9 35 -7 30 2 -3
4 25 8 61 9 246 8 486 186 824 613 140 175 164 211 202 305 10 22 21 47 26 55
5 8 41 72 80 142 85 155 88 178 29 231 -22 21 -43 37 -45 37 -2 0 -34 31 -70
70 -66 70 -132 119 -221 165 -59 31 -83 49 -83 64 0 16 41 14 165 -11 l110
-21 75 -74 c41 -40 85 -80 97 -89 26 -17 25 -20 28 68 0 26 5 51 9 55 19 19
104 -123 92 -154 -4 -9 -9 -41 -13 -71 l-6 -55 29 7 c16 4 43 14 59 21 17 8
109 34 205 59 271 69 359 105 500 199 135 91 223 194 341 399 24 43 47 78 52
78 20 0 2 -64 -37 -127 -175 -285 -330 -403 -724 -554 -313 -120 -366 -162
-608 -485 -361 -483 -568 -711 -758 -836 -209 -138 -282 -160 -546 -165 -174
-3 -254 -13 -270 -32 -3 -4 -18 -14 -33 -24 -16 -11 -25 -23 -21 -30 4 -7 4
-9 -1 -5 -12 11 -45 -11 -45 -30 0 -10 -8 -27 -18 -38 -10 -10 -25 -35 -34
-54 -9 -19 -26 -45 -37 -57 -12 -12 -21 -25 -21 -29 0 -4 -28 -33 -62 -65 -50
-47 -64 -56 -76 -47 -11 10 -17 9 -27 -5 -11 -16 -14 -15 -30 9 -14 22 -16 40
-11 96 3 38 15 87 27 109 11 22 17 44 14 49 -3 6 -2 10 3 10 5 0 19 22 32 50
13 27 27 50 32 50 4 0 8 10 8 23 0 12 6 31 14 42 39 57 24 121 -37 153 -138
73 -347 -20 -688 -307 -135 -114 -289 -215 -479 -314 -153 -80 -185 -101 -239
-156 -72 -73 -115 -164 -162 -351 -16 -63 -43 -153 -59 -200 -51 -144 -102
-302 -116 -360 -7 -30 -27 -116 -44 -190 -17 -74 -42 -159 -56 -188 -49 -107
-166 -254 -294 -369 -218 -197 -309 -301 -427 -490 -32 -50 -59 -90 -61 -88
-5 5 66 135 84 156 8 8 14 20 14 25 0 5 11 21 25 36 14 15 25 31 25 35 0 15
-46 -42 -83 -102 -53 -87 -142 -265 -166 -332 -11 -32 -28 -102 -38 -156 -15
-85 -15 -108 -4 -175 14 -80 46 -177 61 -187 15 -9 130 15 169 35 20 10 56 36
81 57 71 62 189 141 221 148 16 4 29 11 29 16 0 10 63 13 73 2 4 -3 2 -12 -4
-20 -9 -10 -8 -13 1 -13 10 0 9 -5 -2 -17 -9 -10 -19 -29 -23 -43 -4 -14 -17
-37 -29 -52 -11 -15 -37 -48 -56 -74 -19 -26 -68 -82 -107 -124 -66 -69 -130
-151 -371 -468 -109 -143 -109 -143 -138 -197 -24 -43 -93 -124 -116 -136 -64
-34 -97 154 -52 298 8 26 26 113 40 193 30 169 29 284 -5 440 -51 234 -38 404
50 659 16 46 28 86 25 88 -6 7 -66 -165 -94 -272 -25 -97 -26 -110 -27 -425
-2 -344 0 -327 -58 -540 -28 -104 -62 -268 -71 -343 -3 -26 -14 -64 -25 -86
-11 -21 -21 -50 -23 -64 -5 -37 -9 -39 -76 -38 -48 0 -74 7 -124 32 -75 38
-193 152 -262 255 l-46 69 0 -45 c0 -27 7 -56 17 -70 16 -24 16 -24 0 -11 -16
13 -17 -8 -17 -324 0 -317 1 -337 18 -330 81 33 193 36 281 9 33 -10 61 -22
61 -26 0 -5 10 -8 23 -8 18 0 19 -2 7 -10 -8 -5 -13 -10 -10 -11 3 0 14 -3 25
-5 11 -2 44 -7 72 -9 50 -5 53 -4 59 20 5 20 9 23 19 15 8 -7 15 -7 19 -2 3 6
24 9 47 8 26 -2 43 2 46 11 3 7 11 13 19 13 24 0 -1 42 -37 62 -21 11 -27 18
-16 18 10 0 31 -7 47 -15 16 -9 51 -18 77 -21 l48 -5 -40 15 c-22 8 -74 24
-117 35 -96 25 -133 44 -183 94 -24 24 -30 34 -15 24 150 -98 276 -141 413
-142 72 0 100 4 106 14 5 8 14 10 21 6 9 -6 11 -4 5 5 -6 10 -4 12 8 7 9 -3
16 -3 14 1 -1 5 30 35 68 69 39 33 79 70 89 82 11 11 23 21 28 21 5 0 15 6 22
13 24 25 134 174 171 232 110 173 229 297 270 281 23 -9 18 -25 -20 -63 -20
-20 -33 -38 -30 -42 3 -3 10 1 15 8 4 8 17 12 29 8 49 -12 84 109 43 146 -10
10 -26 17 -35 17 -9 0 -17 3 -17 8 0 12 60 42 74 36 46 -17 46 -167 2 -299
-51 -152 -182 -397 -376 -705 -167 -265 -222 -389 -325 -735 -14 -49 -47 -132
-72 -184 -92 -192 -265 -325 -718 -551 l-230 -115 -3 -62 c-2 -35 -1 -63 2
-63 6 0 76 38 91 50 6 4 67 36 136 72 69 36 137 72 150 80 24 16 80 46 219
120 98 53 134 81 258 202 166 162 190 200 305 491 88 222 136 332 209 481 67
135 184 357 213 404 71 115 243 482 295 629 57 161 64 356 17 453 -27 55 -83
121 -125 148 -20 14 -21 18 -11 52 10 31 9 41 -4 62 -16 23 -14 56 2 56 15 0
51 81 91 208 47 150 55 232 27 276 -20 30 -31 32 -81 11 -32 -14 -36 -14 -36
0 0 32 -28 17 -173 -95 -54 -41 -104 -75 -111 -75 -8 0 -45 -20 -82 -43 -64
-41 -69 -43 -111 -34 -27 6 -58 6 -75 1 -17 -4 -35 -6 -39 -3 -12 7 -11 64 1
64 5 0 16 15 24 34 8 18 19 36 24 40 11 7 56 122 67 171 10 45 54 143 93 204
69 111 198 224 308 271 66 29 86 24 33 -8 -137 -81 -286 -249 -251 -284 8 -8
21 -1 49 29 44 48 233 175 313 210 106 48 261 64 400 43 130 -20 257 -71 508
-203 56 -30 102 -51 102 -48 0 4 -38 29 -84 56 -46 28 -83 52 -80 54 5 6 65
-20 96 -41 14 -10 32 -18 40 -18 16 0 231 -105 306 -149 27 -16 70 -38 95 -49
43 -19 46 -19 35 -2 -20 31 -136 102 -324 197 -58 30 -57 38 2 13 25 -11 49
-20 52 -20 29 0 -301 176 -479 255 -57 25 -126 57 -154 70 -50 24 -200 65
-239 65 -20 1 -20 1 2 13 l23 13 -26 12 c-14 7 -34 12 -45 12 -29 0 -32 16 -5
28 27 12 33 37 13 46 -10 4 -10 7 -1 12 20 9 63 53 63 63 0 5 9 16 21 25 20
14 20 15 2 24 -21 12 -104 19 -118 10 -6 -3 -25 -9 -42 -13 -43 -9 -36 13 12
39 18 10 50 34 71 52 20 19 45 34 55 34 11 0 19 5 19 11 0 6 7 8 16 5 9 -4 13
-2 8 5 -4 8 1 9 15 4 15 -5 21 -2 21 9 0 9 5 16 11 16 6 0 8 -7 5 -16 -5 -13
-2 -15 15 -11 12 3 37 0 56 -8 18 -8 33 -11 33 -7 0 4 30 8 68 9 81 2 108 6
145 21 16 7 35 12 43 12 8 0 12 5 9 10 -4 6 5 10 22 8 30 -2 82 28 83 48 0 7
7 14 15 18 19 7 19 26 0 26 -20 0 -19 16 0 24 11 4 14 14 10 33 -4 16 -8 37
-9 48 -2 11 -5 22 -6 25 -4 6 -7 28 -9 62 -1 21 -5 26 -18 21 -13 -5 -15 -2
-9 12 5 14 -1 25 -21 41 -23 20 -25 23 -9 24 16 0 16 2 -5 20 -21 17 -22 21
-9 30 12 8 10 10 -11 10 -15 0 -32 7 -39 15 -7 8 -16 12 -21 9 -5 -3 -9 2 -9
10 0 19 -11 21 -28 4 -9 -9 -12 -7 -12 11 0 16 -4 21 -15 17 -8 -3 -15 -1 -15
5 0 6 -4 8 -9 5 -5 -3 -7 -15 -4 -26 4 -14 0 -20 -11 -20 -9 0 -16 8 -16 18 0
14 -2 15 -9 2 -6 -8 -7 -18 -4 -24 4 -5 -1 -7 -10 -3 -12 5 -17 1 -17 -12 0
-10 -6 -24 -14 -30 -11 -9 -15 -7 -19 9 -5 19 -8 20 -26 8 -12 -7 -21 -19 -21
-26 0 -10 -7 -12 -26 -8 -17 5 -23 3 -19 -4 3 -5 13 -10 21 -10 8 0 13 -4 9
-10 -7 -12 -65 -8 -65 5 0 6 -4 3 -10 -5 -12 -19 -23 -7 -16 18 4 11 16 22 27
25 12 3 18 10 14 16 -3 6 -11 8 -17 5 -6 -4 -8 1 -3 15 4 13 2 21 -5 21 -6 0
-9 4 -6 9 3 5 15 7 26 4 11 -3 20 0 20 6 0 6 -6 11 -14 11 -19 0 -26 33 -9 48
7 7 11 18 7 23 -3 6 4 13 16 16 l23 6 -23 17 c-15 11 -19 19 -11 24 6 4 11 2
11 -3 0 -6 6 -11 14 -11 18 0 28 40 11 46 -7 3 -11 14 -7 26 3 11 -1 24 -9 29
-8 5 -9 9 -4 9 6 0 10 14 10 30 0 17 -3 30 -7 30 -10 0 -9 87 3 167 17 116 60
184 167 260 70 51 95 53 33 4 -48 -38 -105 -126 -98 -152 3 -11 2 -21 -2 -24
-11 -6 -11 -63 0 -92 5 -13 13 -21 19 -18 6 3 10 -5 10 -19 0 -28 29 -40 120
-51 30 -4 71 -11 90 -17 19 -6 53 -12 76 -13 40 -1 42 -1 31 22 -6 13 -18 22
-31 22 -24 -1 -128 33 -198 65 -48 22 -117 100 -98 111 6 3 10 15 10 25 0 19
86 100 106 100 15 0 160 76 199 104 16 11 37 26 46 31 48 29 149 103 261 190
100 78 174 130 222 156 43 23 100 29 116 13 26 -26 9 -171 -30 -269 -4 -11
-18 -47 -30 -80 -12 -33 -32 -80 -43 -105 -12 -25 -22 -48 -23 -52 -1 -5 -3
-10 -4 -13 -1 -3 -3 -8 -4 -12 -1 -5 -7 -18 -14 -29 -17 -31 -30 -127 -21
-153 5 -11 6 -27 3 -34 -3 -8 2 -20 11 -27 8 -7 15 -18 15 -26 0 -7 5 -25 12
-41 7 -15 12 -32 13 -38 0 -5 9 -23 19 -38 10 -15 16 -30 13 -34 -3 -3 0 -12
8 -20 8 -8 15 -23 15 -33 0 -10 5 -22 10 -25 6 -3 10 -16 10 -29 0 -12 3 -26
7 -30 4 -3 8 -17 10 -29 2 -12 7 -31 12 -42 5 -11 16 -58 26 -105 9 -47 32
-139 52 -205 19 -66 41 -141 48 -167 7 -25 20 -61 29 -79 9 -18 16 -36 16 -40
0 -13 61 -111 84 -136 25 -27 100 -33 109 -9 3 8 19 17 35 21 61 13 108 94
188 323 30 87 58 166 63 177 96 206 135 279 241 455 48 80 98 167 111 193 13
26 33 65 43 85 47 91 100 262 111 355 12 107 14 123 29 167 22 67 44 107 86
151 41 44 41 45 -3 25 -65 -29 -197 -63 -197 -51 0 3 21 15 48 26 26 11 56 24
67 29 11 5 49 21 85 36 67 29 238 127 300 173 156 115 315 274 476 476 21 27
46 56 54 65 8 9 42 52 75 95 260 339 330 422 424 497 83 67 115 84 291 158 69
29 146 63 172 76 26 13 51 24 55 24 4 -1 -82 -47 -193 -103 -202 -102 -266
-144 -359 -234 -52 -50 -165 -178 -200 -227 -43 -59 -318 -401 -386 -479 -132
-152 -314 -322 -405 -377 -21 -14 -43 -28 -49 -33 -5 -4 -19 -15 -30 -23 -11
-9 3 -4 30 11 132 72 355 268 501 440 32 39 64 75 71 80 6 6 35 39 64 75 29
36 57 67 61 68 4 2 8 8 8 14 0 6 8 18 18 27 9 9 43 48 75 88 32 40 67 75 78
78 10 4 18 9 17 13 -2 13 14 42 24 42 5 0 6 -9 3 -20 -10 -30 20 -25 57 10 32
31 55 40 41 17 -4 -8 -33 -45 -64 -83 -31 -38 -115 -141 -185 -229 -128 -160
-149 -185 -234 -280 -25 -27 -67 -76 -93 -107 -47 -56 -47 -57 -18 -47 51 18
335 306 510 518 264 320 398 449 609 584 52 33 56 22 5 -13 -44 -30 -316 -297
-361 -355 -151 -195 -371 -455 -487 -575 -35 -37 -132 -131 -216 -210 -185
-175 -254 -244 -295 -296 -47 -60 -98 -136 -113 -169 -13 -30 -22 -48 -40 -82
-9 -18 -53 -113 -66 -143 -3 -8 -16 -35 -29 -60 -13 -25 -21 -49 -18 -55 3 -5
7 -4 10 3 2 7 9 12 16 12 6 0 32 23 56 51 54 62 124 159 115 159 -3 0 3 13 14
29 12 16 21 32 21 36 0 15 44 95 52 95 4 0 8 6 8 14 0 8 21 42 46 77 46 63 93
111 215 219 34 30 72 64 83 75 12 12 41 37 66 57 25 20 74 64 110 98 84 79
116 98 75 44 -32 -42 -68 -84 -100 -118 -193 -201 -294 -328 -360 -451 -35
-64 -83 -143 -95 -155 -3 -3 -11 -16 -18 -31 -7 -14 -26 -39 -43 -57 -16 -17
-29 -33 -29 -36 0 -4 -8 -14 -18 -24 -31 -34 -115 -133 -136 -163 -12 -15 -42
-57 -68 -91 -85 -113 -105 -141 -172 -255 -58 -97 -166 -310 -166 -327 0 -3
-11 -30 -25 -59 -14 -28 -47 -101 -73 -162 -26 -60 -56 -126 -67 -146 -39 -71
-139 -234 -162 -265 -13 -17 -23 -34 -23 -37 0 -3 -20 -35 -45 -71 -25 -37
-45 -69 -45 -73 0 -3 -7 -15 -17 -25 -9 -10 -12 -18 -7 -18 5 0 43 32 83 70
40 39 75 69 77 67 2 -2 -5 -13 -16 -25 -11 -12 -20 -25 -20 -31 0 -5 -3 -11
-8 -13 -4 -1 -29 -30 -55 -63 -84 -104 -287 -305 -309 -305 -4 0 -8 -5 -8 -10
0 -6 -9 -21 -21 -33 l-20 -22 27 -3 c34 -4 60 8 149 74 125 91 289 251 409
402 107 133 93 93 -23 -63 -128 -173 -235 -290 -360 -393 -25 -20 -56 -47 -69
-59 -14 -13 -28 -23 -31 -23 -3 0 -30 -22 -60 -50 -30 -27 -57 -50 -60 -50
-11 0 -41 -40 -41 -54 0 -7 6 -19 14 -25 17 -14 95 18 88 37 -2 6 4 12 13 12
9 0 27 11 41 25 14 14 29 25 35 25 5 0 22 12 37 28 15 15 57 52 92 82 35 30
73 64 84 75 22 22 129 155 183 227 18 24 107 143 198 266 155 206 209 268 169
190 -9 -18 -53 -87 -97 -153 -88 -132 -207 -331 -207 -345 0 -5 7 -7 15 -4 13
5 14 2 5 -21 -6 -16 -17 -40 -25 -54 -16 -29 -65 -141 -65 -148 0 -17 35 28
54 71 68 147 93 196 126 246 20 30 46 75 58 98 13 24 49 79 81 122 91 121 155
218 195 300 21 41 68 119 104 174 70 103 90 135 127 201 42 74 151 290 165
325 8 19 16 37 19 40 3 3 16 26 28 53 13 26 27 47 33 47 5 0 10 8 10 19 0 10
7 24 15 31 8 7 15 17 15 22 0 5 20 30 44 56 24 26 59 65 77 87 19 22 51 58 71
80 63 67 123 151 267 370 139 210 281 434 281 441 0 2 55 92 123 201 164 265
166 266 226 370 74 126 246 377 328 480 116 145 295 353 305 353 4 0 8 -24 8
-53 0 -50 -3 -56 -76 -147 -108 -135 -208 -286 -314 -475 -37 -65 -120 -234
-120 -244 0 -41 -134 -277 -231 -406 -53 -72 -169 -264 -169 -282 0 -38 -870
-1347 -968 -1455 -43 -47 -66 -51 -57 -8 9 39 -6 38 -29 -2 -40 -71 -99 -158
-106 -158 -5 0 -4 14 1 32 12 43 6 45 -23 6 -86 -117 -292 -458 -281 -467 3
-3 8 -1 10 6 17 48 222 290 223 263 0 -26 -89 -173 -119 -197 -25 -20 -151
-201 -151 -218 0 -22 -292 -490 -382 -612 -52 -71 -73 -89 -62 -55 11 31 -64
-54 -137 -158 -64 -92 -257 -440 -243 -440 4 0 1 -7 -6 -15 -7 -9 -10 -18 -7
-21 9 -9 122 111 161 171 18 27 64 104 101 170 38 66 73 125 78 130 29 32
-196 -380 -297 -543 -139 -225 -317 -403 -455 -455 -27 -10 -33 -9 -41 3 -8
13 -13 13 -31 2 -18 -12 -24 -11 -36 1 -17 17 -11 31 78 179 71 119 113 228
133 347 20 116 20 153 1 259 -20 112 -43 152 -145 252 -62 61 -320 210 -363
210 -21 0 -126 49 -311 147 -73 38 -85 40 -60 11 l19 -22 -30 21 c-53 36 -150
81 -246 114 -84 29 -107 32 -216 33 -84 1 -126 -3 -134 -11 -7 -7 -10 -15 -7
-19 4 -3 67 -10 141 -14 74 -5 152 -12 173 -15 104 -19 250 -79 345 -144 52
-34 179 -157 179 -171 0 -6 -28 10 -62 35 -74 54 -92 58 -44 10 88 -88 188
-279 200 -381 8 -75 -3 -184 -16 -160 -5 9 -7 24 -4 34 3 9 2 32 -2 51 l-7 34
-14 -54 c-12 -50 -51 -175 -121 -390 -16 -47 -49 -134 -74 -192 -25 -59 -54
-141 -65 -184 -25 -98 -48 -129 -91 -126 -37 1 -50 16 -50 56 0 65 64 284 131
444 55 132 105 270 113 313 6 32 6 34 -8 16 -14 -18 -15 -17 -21 10 -11 49
-14 54 -29 54 -28 0 -65 -66 -117 -203 -29 -76 -53 -136 -55 -134 -2 2 5 35
17 73 24 84 60 247 54 252 -8 9 -24 -41 -54 -168 -18 -74 -39 -148 -47 -165
l-14 -30 5 35 c2 19 11 73 19 120 9 47 21 146 26 220 19 235 33 286 91 316 46
23 67 17 114 -33 25 -26 47 -44 51 -40 9 9 -3 66 -21 101 -8 15 -15 35 -15 43
0 16 -53 73 -68 73 -5 0 -12 -9 -15 -20 -8 -32 -34 -24 -41 13 -10 52 -56 88
-128 101 -41 7 -51 -5 -20 -24 14 -10 13 -10 -8 -5 -45 12 -90 17 -90 10 0 -4
11 -16 25 -27 32 -25 57 -72 49 -92 -8 -20 -18 -20 -35 0 -30 36 -109 59 -109
31 0 -7 8 -24 17 -37 24 -34 24 -133 0 -183 -10 -20 -41 -77 -69 -125 -61
-105 -93 -191 -77 -206 7 -8 9 -7 7 4 -2 8 2 14 7 15 14 1 55 37 55 50 1 16
98 116 104 107 5 -9 -20 -83 -55 -159 -10 -22 -37 -90 -60 -150 -23 -59 -45
-112 -49 -118 -25 -35 -42 -122 -37 -191 3 -40 9 -79 13 -86 5 -7 7 -26 5 -43
-4 -50 -49 -216 -74 -280 -43 -107 -128 -302 -146 -335 -4 -8 -52 -118 -106
-245 -53 -126 -108 -253 -121 -282 -13 -28 -24 -54 -24 -57 0 -18 -194 -417
-335 -689 -53 -104 -95 -190 -92 -193 9 -9 138 211 211 361 84 173 91 189 141
310 21 50 45 108 55 130 72 160 141 306 223 470 51 105 111 225 132 268 21 42
40 76 42 74 2 -2 -40 -96 -93 -208 -103 -219 -163 -351 -251 -549 -30 -69 -66
-149 -79 -178 -13 -29 -24 -55 -24 -58 0 -13 -165 -341 -220 -439 -60 -106
-221 -346 -263 -392 -11 -13 -18 -25 -15 -28 15 -15 186 220 295 405 73 124
198 370 246 485 14 33 39 89 55 125 16 36 56 124 87 195 32 72 77 172 101 224
24 51 44 95 44 97 0 1 20 45 44 96 24 51 67 141 94 200 28 60 53 108 56 108
11 0 -68 -197 -176 -440 -36 -80 -100 -226 -143 -325 -159 -371 -372 -775
-513 -975 -185 -263 -399 -463 -794 -743 -38 -26 -68 -50 -68 -53 0 -2 117 -4
260 -4 143 1 260 5 260 10 0 10 -74 105 -90 115 -20 13 -10 45 17 56 20 7 29
7 31 -1 2 -6 23 -34 45 -62 23 -28 53 -66 67 -84 l25 -33 94 -1 94 0 -39 29
c-67 49 -128 116 -157 172 -38 76 -55 181 -26 163 5 -3 9 -22 9 -43 0 -100 93
-220 220 -284 l65 -32 442 -3 c317 -2 443 0 443 8 0 6 -7 25 -16 42 -26 50
-44 120 -43 168 l1 45 9 -40 c5 -22 23 -82 41 -133 l31 -92 46 0 46 0 -1 163
c-1 89 -7 185 -13 212 -6 28 -14 70 -16 95 l-5 45 16 -34 c15 -34 30 -131 39
-266 3 -38 12 -103 21 -142 l15 -73 95 0 94 0 -6 73 c-6 64 -3 78 20 129 33
71 33 118 1 233 -39 146 -62 285 -50 313 4 9 9 24 10 33 1 10 14 31 28 49 15
17 28 36 28 41 1 5 2 12 3 17 1 8 16 25 86 98 26 28 45 55 42 61 -13 19 -42
22 -79 9 -21 -7 -45 -11 -53 -8 -8 3 -12 2 -9 -2 3 -3 -12 -26 -35 -49 -69
-72 -79 -87 -166 -267 -18 -36 -36 -69 -41 -74 -27 -28 -110 124 -113 206 -1
41 3 53 22 69 24 18 24 18 69 -7 50 -28 49 -28 116 38 21 21 42 38 47 38 4 0
13 7 20 15 7 8 35 25 64 39 28 13 62 36 75 50 14 14 28 26 33 26 14 0 68 64
63 77 -2 6 3 14 11 17 10 4 13 13 8 32 -5 19 -4 25 5 20 6 -4 11 -3 11 2 0 12
-52 23 -102 22 -20 0 -39 4 -43 10 -3 5 -14 10 -23 10 -9 0 -28 16 -41 35 -19
29 -22 42 -17 79 4 24 16 64 28 88 44 90 174 236 303 339 69 55 318 224 485
329 177 112 441 328 412 338 -16 5 -192 -81 -197 -97 -10 -30 -297 -206 -580
-356 -172 -92 -319 -182 -473 -294 -79 -56 -148 -101 -154 -99 -30 10 362 333
505 416 40 23 43 22 27 -9 -15 -27 -4 -25 97 19 142 62 534 294 520 308 -2 2
-35 -5 -73 -16 -38 -12 -76 -23 -84 -25 -54 -16 304 235 385 270 22 9 56 23
75 32 36 15 51 24 180 108 154 100 317 256 480 459 118 148 321 357 426 439
228 178 443 253 799 277 137 9 185 17 185 30 0 4 18 28 40 53 35 40 40 51 40
95 0 42 3 52 20 57 11 3 20 11 20 16 0 5 14 9 30 9 17 0 30 -4 30 -9 0 -5 6
-16 13 -23 11 -11 39 -64 41 -78 1 -3 12 -27 25 -53 18 -37 24 -66 25 -125 0
-66 -4 -86 -30 -142 -17 -36 -52 -90 -77 -122 -45 -54 -175 -162 -264 -218
-165 -105 -233 -201 -185 -260 20 -24 24 -25 144 -25 102 0 141 5 228 28 175
46 415 149 548 233 29 19 55 34 58 34 22 0 320 221 413 307 27 24 46 21 32 -5
-29 -54 -290 -243 -497 -360 -331 -188 -665 -292 -900 -280 -67 3 -77 6 -104
34 l-30 30 16 46 c16 47 95 129 182 188 265 180 329 235 380 330 50 92 61 225
22 264 -8 8 -10 -3 -7 -44 6 -104 -21 -190 -85 -272 -32 -41 -148 -134 -278
-223 -197 -135 -332 -253 -356 -311 -7 -18 -15 -72 -16 -121 l-3 -89 50 -57
c76 -89 224 -157 241 -112 9 23 120 71 229 99 116 30 170 52 204 83 13 13 53
39 90 60 36 20 80 44 97 54 18 10 70 42 115 72 46 29 113 71 149 92 140 82
358 222 426 272 40 28 74 49 78 46 3 -4 6 -43 6 -87 0 -79 -1 -82 -32 -110
-29 -25 -30 -26 -5 -12 21 13 27 14 27 3 0 -7 -15 -21 -32 -30 -92 -47 -228
-135 -228 -147 0 -9 117 57 205 115 27 19 52 32 56 30 8 -6 9 -239 0 -251 -3
-5 -26 -24 -50 -42 -50 -35 -45 -43 7 -12 18 11 37 20 42 20 11 0 14 -178 4
-228 -6 -27 -21 -37 -178 -115 -193 -97 -273 -134 -396 -184 -211 -86 -369
-168 -450 -233 -22 -17 -17 -17 35 5 33 14 69 30 80 35 46 21 117 51 235 100
69 28 134 55 145 60 84 36 192 80 199 80 4 0 32 11 62 25 30 14 57 25 60 25 3
0 20 6 37 14 48 21 128 46 149 46 10 0 18 -7 18 -16 0 -8 -5 -12 -11 -8 -6 3
-30 1 -53 -6 -99 -30 -161 -52 -197 -70 -21 -11 -46 -20 -57 -20 -10 0 -22 -4
-27 -9 -9 -8 -78 -37 -235 -101 -92 -37 -162 -71 -157 -76 3 -4 21 1 39 10 77
39 264 107 383 141 33 9 68 21 77 26 20 10 59 12 82 3 20 -8 21 -60 1 -68 -8
-3 -15 -12 -15 -20 0 -12 -41 -52 -169 -166 -19 -16 -69 -56 -110 -87 -42 -32
-103 -80 -136 -106 -188 -152 -389 -294 -540 -383 -85 -50 -407 -214 -419
-214 -2 0 -39 -16 -83 -36 -103 -47 -126 -57 -203 -88 -36 -15 -74 -31 -85
-35 -11 -5 -38 -16 -60 -26 -22 -9 -51 -21 -65 -27 -14 -6 -32 -14 -40 -19 -8
-5 -22 -12 -30 -15 -8 -3 -22 -10 -30 -15 -8 -5 -22 -12 -30 -15 -8 -3 -24
-10 -35 -15 -11 -5 -31 -13 -45 -19 -14 -5 -33 -14 -42 -20 -10 -5 -26 -15
-35 -20 -10 -6 -25 -13 -33 -16 -8 -3 -44 -18 -80 -32 -36 -15 -68 -26 -72
-24 -5 1 -8 -2 -8 -8 0 -5 -7 -10 -15 -10 -8 0 -23 -4 -33 -9 -32 -16 -67 -29
-152 -58 -47 -15 -87 -31 -90 -34 -3 -3 -23 -9 -45 -13 -22 -4 -46 -13 -53
-18 -9 -8 -16 -8 -24 0 -9 9 -7 12 7 13 14 0 11 3 -8 9 -16 5 -35 6 -43 3 -8
-3 -14 0 -14 6 0 6 9 11 19 11 26 0 36 17 21 35 -7 8 -10 16 -6 16 3 1 10 2
14 3 5 0 32 26 60 56 29 30 58 55 65 55 6 1 11 6 9 13 -1 7 10 17 24 22 15 6
73 33 130 60 56 28 105 50 108 50 10 0 221 91 261 112 22 12 72 42 110 68 39
26 106 64 150 85 44 21 87 42 95 47 8 4 28 13 43 19 16 7 69 31 119 55 49 24
92 44 94 44 21 0 -138 -112 -178 -126 -10 -4 -18 -13 -18 -20 0 -8 -7 -14 -15
-14 -8 0 -15 -7 -15 -15 0 -8 -9 -19 -20 -25 -12 -7 -18 -16 -13 -23 4 -7 8
-19 8 -27 0 -33 171 -6 325 50 47 18 96 35 110 40 52 16 245 112 337 167 53
32 108 65 122 73 35 21 345 249 396 292 11 9 67 53 125 98 107 82 230 196 230
211 0 5 6 9 14 9 13 0 28 55 18 65 -12 12 -143 -9 -222 -35 -141 -47 -212 -76
-331 -138 -128 -65 -143 -75 -248 -149 -108 -77 -116 -65 -15 22 48 41 93 75
101 75 7 0 13 5 13 10 0 21 -118 -54 -230 -145 -197 -160 -243 -196 -336 -257
-96 -63 -181 -112 -294 -169 -78 -40 -626 -303 -740 -356 -74 -34 -78 -37
-141 -69 -29 -16 -58 -29 -64 -30 -18 -3 -145 -95 -145 -105 0 -6 -4 -7 -10
-4 -5 3 -17 0 -25 -7 -31 -27 -152 -148 -147 -148 2 0 -1 -6 -7 -14 -6 -8 -11
-39 -10 -69 l2 -55 56 4 c31 2 65 8 76 13 51 22 77 31 95 31 11 0 20 5 20 10
0 6 6 10 13 10 7 0 31 8 53 19 57 27 182 81 187 81 3 0 34 13 69 29 35 16 92
41 128 56 36 15 94 40 130 57 36 16 81 37 100 45 19 8 51 23 70 33 19 10 46
21 60 25 14 4 52 20 85 35 33 15 85 37 115 50 134 54 367 161 508 232 134 68
366 203 399 233 6 5 34 26 62 45 27 19 137 100 243 179 106 79 206 153 222
165 116 84 263 206 328 271 69 67 78 74 78 52 0 -29 -76 -107 -194 -197 -43
-33 -76 -60 -72 -60 8 0 83 49 111 72 11 9 40 32 65 52 25 20 53 44 63 53 30
29 38 4 35 -117 l-3 -113 -91 -66 c-100 -72 -331 -238 -434 -311 -130 -92
-448 -298 -565 -367 -202 -117 -229 -133 -221 -133 14 0 206 104 330 179 65
39 120 70 122 68 3 -3 -222 -143 -301 -188 -22 -12 -91 -50 -153 -85 -63 -35
-115 -64 -116 -64 -2 0 -43 -23 -92 -51 -161 -94 -209 -120 -226 -126 -10 -3
-18 -9 -18 -14 0 -5 -4 -9 -8 -9 -4 0 -52 -28 -105 -62 -53 -35 -119 -76 -146
-93 -28 -16 -51 -34 -51 -38 0 -4 -10 -11 -22 -16 -16 -6 -18 -9 -6 -13 14 -6
107 22 140 42 10 5 25 10 33 10 8 0 23 4 33 9 15 8 35 14 110 36 12 3 22 2 22
-3 0 -8 -25 -22 -115 -63 -295 -133 -460 -216 -657 -331 -88 -51 -88 -61 -1
-12 251 138 558 294 580 294 4 0 -26 -18 -67 -41 -181 -98 -290 -163 -280
-169 6 -4 -21 -21 -60 -39 -39 -18 -69 -35 -67 -38 3 -2 42 12 86 33 58 26 78
40 69 46 -9 6 -6 7 8 4 19 -6 45 4 194 71 19 9 76 36 125 60 l90 43 -80 -76
c-44 -41 -136 -119 -205 -172 -69 -53 -129 -100 -135 -105 -5 -4 -66 -49 -135
-99 -123 -90 -331 -246 -373 -280 l-22 -18 29 0 c20 0 55 20 115 63 130 96
193 141 213 152 40 23 211 145 313 224 61 46 183 158 271 248 89 89 167 163
174 163 21 0 -112 -153 -277 -318 -89 -89 -169 -162 -178 -162 -8 0 -15 -4
-15 -10 0 -9 -81 -64 -235 -161 -39 -24 -79 -50 -90 -57 -11 -7 -33 -20 -48
-30 -16 -9 -58 -38 -95 -64 l-66 -48 279 0 280 1 49 66 c27 36 84 116 127 177
96 135 129 176 129 157 0 -8 -20 -89 -44 -180 -24 -91 -47 -178 -50 -193 l-6
-28 58 0 58 0 58 183 c100 313 206 576 251 623 5 6 26 33 45 61 35 51 106 110
118 99 3 -4 1 -11 -6 -15 -7 -4 -10 -15 -6 -24 3 -10 1 -17 -5 -17 -15 0 -14
-19 3 -35 9 -10 12 -30 9 -62 -8 -95 -67 -405 -128 -671 l-32 -142 131 0 132
0 32 140 c29 127 76 245 114 285 9 10 3 -50 -12 -115 -5 -19 -18 -87 -29 -150
-12 -63 -24 -125 -27 -137 -6 -23 -6 -23 105 -23 l111 0 0 45 c0 63 -28 61
-69 -5 -25 -42 -25 -40 -6 47 20 85 62 199 87 236 17 23 22 26 35 15 12 -10
14 -29 9 -107 -6 -88 -11 -138 -21 -203 l-4 -28 219 0 220 0 0 43 c5 389 -23
637 -86 775 -9 19 -33 50 -53 70 -21 21 -40 44 -44 54 -9 25 16 50 59 57 43 7
47 19 26 81 -6 19 -13 55 -14 80 -2 25 -7 48 -13 52 -6 5 -4 8 4 8 11 0 9 4
-5 15 -19 14 -19 14 0 15 18 0 18 1 2 19 -19 21 -14 41 11 41 9 0 13 -6 10
-14 -4 -10 0 -12 16 -8 12 3 19 1 14 -3 -4 -5 3 -19 15 -32 12 -13 18 -23 13
-23 -5 0 -1 -6 9 -13 23 -17 62 -88 126 -232 81 -180 127 -485 129 -862 l1
-123 170 0 170 0 0 6000 0 6000 -3535 0 -3535 0 0 -30z m1717 -27 c4 -9 -2
-39 -11 -67 -30 -83 -61 -94 -130 -47 -43 30 -116 107 -116 122 0 5 56 9 125
9 108 0 127 -2 132 -17z m1615 -28 c-2 -22 -7 -58 -12 -80 -6 -26 -6 -41 1
-43 6 -3 6 -8 0 -15 -5 -7 -11 -56 -14 -109 -3 -53 -10 -106 -16 -117 -24 -44
-79 -49 -129 -10 -48 37 -111 141 -128 209 -3 15 -17 47 -25 60 -5 8 -12 23
-16 33 -6 18 -30 18 -26 -1 1 -6 -4 -33 -13 -62 -15 -50 -16 -51 -47 -45 -53
10 -186 81 -279 147 -49 35 -88 66 -88 70 0 4 179 7 397 5 l398 -2 -3 -40z
m527 39 c30 -6 31 -9 31 -54 0 -29 -5 -50 -12 -52 -7 -3 -13 -30 -14 -69 -11
-274 -36 -415 -90 -508 -15 -25 -15 -24 -8 24 9 74 13 552 4 607 -4 26 -5 50
-2 53 7 7 53 6 91 -1z m502 -11 c8 -10 23 -34 33 -53 11 -19 69 -111 131 -205
61 -93 115 -177 120 -185 4 -8 -28 20 -72 63 -88 84 -109 94 -100 48 10 -51
45 -114 97 -176 46 -55 63 -95 41 -95 -13 0 11 -71 26 -77 7 -3 13 -10 13 -15
0 -15 71 -110 103 -137 16 -13 81 -56 145 -95 64 -38 155 -97 202 -129 47 -32
114 -78 150 -103 36 -24 85 -62 110 -85 29 -26 -6 -6 -100 56 -202 133 -198
131 -279 171 -66 32 -101 38 -101 17 0 -5 9 -13 19 -18 115 -60 295 -176 391
-251 41 -33 87 -67 101 -76 33 -21 190 -108 195 -108 13 0 -1 25 -28 50 -18
17 21 -5 87 -48 115 -75 199 -112 253 -112 14 0 22 3 19 7 -4 3 -2 12 4 19 8
10 2 24 -26 59 -21 25 -33 45 -28 45 26 0 181 -139 237 -213 55 -72 37 -144
-39 -153 -33 -5 -50 0 -95 28 -66 40 -118 63 -127 55 -3 -4 17 -40 46 -81 161
-233 166 -244 163 -369 -2 -98 -2 -99 28 -129 30 -30 32 -30 103 -24 89 9 163
41 215 95 22 23 43 41 46 41 3 0 -6 -24 -20 -52 -41 -80 -142 -179 -426 -418
-10 -8 -18 -23 -18 -33 0 -14 6 -18 28 -15 30 3 31 0 5 -73 -20 -58 -14 -75
34 -88 31 -9 43 -19 63 -58 22 -43 34 -53 115 -93 50 -25 90 -49 90 -55 0 -5
-28 -17 -62 -25 -33 -8 -69 -22 -80 -31 -41 -37 -57 -38 -409 -39 -381 -2
-414 2 -518 58 -50 26 -124 95 -197 180 -30 35 -42 42 -72 42 -42 0 -86 -33
-123 -92 -14 -21 -29 -36 -34 -33 -27 17 5 119 52 162 28 26 119 73 144 74 15
0 13 3 -6 10 -60 24 -216 -55 -312 -160 -43 -46 -60 -74 -77 -128 l-22 -69 25
-78 c39 -119 37 -130 -33 -166 -63 -32 -133 -36 -248 -14 -136 26 -458 27
-553 1 -78 -21 -231 -83 -240 -97 -3 -5 -37 -21 -75 -36 -95 -36 -127 -45
-120 -33 4 5 11 9 17 9 5 0 72 29 147 64 75 35 147 68 161 74 50 21 -16 13
-70 -8 -65 -26 -73 -25 -32 2 21 13 30 24 24 30 -11 11 -81 -22 -182 -87 -65
-43 -239 -129 -246 -123 -1 2 52 46 119 98 188 145 236 184 232 188 -2 2 -16
-5 -32 -15 -15 -11 -37 -23 -47 -27 -28 -10 -7 13 75 80 73 60 122 83 178 84
32 0 33 1 18 18 -9 9 -50 35 -92 56 -53 27 -77 45 -81 61 -8 34 -2 56 21 69
11 6 22 12 24 13 2 1 -22 82 -54 180 -31 98 -73 228 -92 288 -37 117 -73 189
-73 149 0 -12 -7 -25 -16 -28 -13 -5 -15 -14 -10 -39 24 -108 45 -256 51 -344
7 -100 7 -102 -18 -127 -29 -28 -44 -31 -98 -16 -68 19 -131 74 -169 147 -20
37 -42 68 -49 68 -8 0 -39 -63 -77 -160 -103 -260 -246 -533 -470 -895 -50
-82 -94 -187 -94 -226 0 -23 5 -44 11 -46 6 -2 -29 -26 -78 -52 -48 -27 -108
-61 -132 -74 l-43 -25 7 24 c17 56 100 208 176 322 231 345 344 575 434 887
73 251 101 425 124 750 13 187 59 308 131 345 28 15 32 14 64 -7 35 -24 137
-141 189 -217 17 -25 33 -48 37 -51 3 -3 24 -36 47 -75 76 -128 123 -244 183
-455 69 -243 140 -367 235 -411 50 -23 147 -26 165 -4 14 16 -4 46 -70 114
-26 27 -31 38 -26 63 3 17 6 36 6 42 0 7 21 41 46 77 26 35 43 55 40 44 -28
-79 -30 -104 -11 -125 24 -27 46 -25 119 9 100 49 194 154 242 272 26 65 30
89 13 106 -8 8 -30 -8 -79 -58 -38 -38 -73 -69 -78 -69 -15 0 -34 28 -27 40
22 35 -5 473 -36 591 -16 64 -31 142 -43 230 -13 97 -2 184 26 200 14 8 17 1
23 -54 4 -34 17 -118 30 -187 13 -69 31 -187 41 -262 19 -145 29 -170 25 -65
-1 45 1 58 9 47 5 -8 10 -31 10 -50 0 -40 13 -65 28 -56 30 18 43 228 32 511
-4 117 -8 135 -26 135 -8 0 -14 4 -14 9 0 5 -9 11 -20 14 -18 5 -19 11 -13 88
7 98 29 149 98 222 62 66 95 125 88 159 -3 16 -10 25 -16 21 -6 -4 -8 2 -4 17
3 13 2 29 -3 35 -12 14 -13 50 -4 153 12 147 -62 620 -122 777 -9 23 88 21
107 -2z m354 -25 c62 -94 179 -199 274 -247 23 -12 88 -38 144 -57 114 -40
148 -64 131 -92 -16 -24 -56 -18 -144 25 -113 54 -200 114 -285 194 -69 66
-175 193 -175 212 0 21 31 2 55 -35z m1812 -25 c187 -162 251 -206 383 -263
l85 -37 0 -325 c0 -268 -3 -328 -14 -342 -8 -10 -16 -35 -18 -57 -3 -32 -1
-38 12 -33 42 16 -18 -144 -70 -184 -12 -9 -39 -53 -61 -97 -97 -192 -147
-281 -169 -301 -13 -12 -21 -25 -18 -28 4 -3 2 -6 -4 -6 -5 0 -15 12 -22 28
-8 15 -17 34 -22 42 -5 8 -12 23 -15 33 -9 25 -24 21 -24 -8 0 -14 -4 -25 -8
-25 -4 0 -16 -13 -25 -30 -10 -16 -22 -30 -28 -30 -5 0 -9 39 -9 88 0 90 6
108 52 154 31 31 83 16 112 -33 27 -45 52 -38 61 17 7 50 -1 121 -16 130 -17
10 -9 26 11 21 23 -6 24 -1 9 58 -18 72 -53 101 -274 230 -55 32 -125 78 -155
101 -59 45 -179 163 -207 204 -9 14 -20 27 -23 30 -11 9 -175 232 -231 315
-103 151 -243 397 -232 408 2 2 192 5 423 6 l419 2 78 -68z m252 25 c73 -66
102 -90 158 -128 29 -19 53 -41 53 -47 0 -14 -82 44 -197 138 -65 52 -87 79
-67 79 4 0 28 -19 53 -42z m70 18 c29 -28 123 -77 131 -70 3 3 -14 23 -37 44
-23 20 -39 40 -36 44 12 12 61 6 73 -9 15 -18 22 -155 9 -155 -20 0 -116 70
-164 119 -45 47 -47 51 -25 51 13 0 35 -11 49 -24z m-6017 -4 c7 -10 27 -29
45 -42 18 -13 30 -26 28 -31 -3 -4 1 -18 8 -32 7 -14 12 -38 11 -53 -1 -16 -2
-40 -3 -54 -1 -14 -16 -41 -35 -60 -23 -25 -30 -38 -22 -45 14 -12 47 -13 64
-1 8 5 18 4 24 -2 6 -6 17 -8 24 -5 17 6 21 -51 10 -122 -2 -11 2 -26 8 -34 6
-8 10 -16 9 -17 -13 -19 72 -86 139 -110 24 -8 90 -19 147 -24 114 -9 148 -25
118 -54 -9 -9 -31 -16 -49 -16 -67 1 -226 29 -259 45 -31 17 -162 145 -185
182 -6 10 -10 29 -8 43 1 14 -2 40 -8 57 -8 29 -12 32 -30 22 -18 -9 -20 -9
-15 4 9 23 -25 32 -40 11 -16 -22 -163 -31 -163 -11 0 8 -3 8 -9 -1 -4 -8 -11
-13 -15 -12 -4 1 -30 -5 -59 -14 -85 -25 -105 -27 -110 -13 -4 9 -8 8 -16 -3
-7 -10 -13 -11 -19 -5 -14 15 -24 65 -13 65 5 0 14 15 22 33 12 30 61 85 104
117 11 8 51 49 90 90 38 41 79 80 92 87 51 27 98 29 115 5z m3973 7 c11 -17
-1 -21 -15 -4 -8 9 -8 15 -2 15 6 0 14 -5 17 -11z m1765 -9 c11 -11 20 -22 20
-25 0 -9 -40 19 -44 32 -7 19 1 16 24 -7z m-2962 -14 c24 -3 50 -10 59 -14 21
-12 63 -116 56 -142 -3 -11 -1 -26 5 -33 20 -24 24 -132 6 -176 -20 -52 -37
-53 -135 -6 -88 41 -98 48 -129 100 -31 51 -35 149 -7 170 10 7 17 17 15 21
-1 5 6 27 16 50 16 34 22 40 45 38 14 -2 45 -6 69 -8z m1245 -56 c-6 -6 -33
30 -33 43 0 5 9 -1 19 -14 11 -13 17 -26 14 -29z m1767 25 c7 -9 8 -15 2 -15
-5 0 -12 7 -16 15 -3 8 -4 15 -2 15 2 0 9 -7 16 -15z m50 -45 c0 -5 -2 -10 -4
-10 -3 0 -8 5 -11 10 -3 6 -1 10 4 10 6 0 11 -4 11 -10z m-1780 -10 c0 -5 -2
-10 -4 -10 -3 0 -8 5 -11 10 -3 6 -1 10 4 10 6 0 11 -4 11 -10z m151 -95 c19
-8 27 -14 19 -14 -14 0 -72 28 -59 29 4 0 22 -7 40 -15z m-4648 -19 c-10 -13
-39 -48 -64 -77 -58 -69 -92 -128 -86 -151 3 -10 2 -16 -3 -13 -4 3 -10 -2
-14 -10 -3 -8 2 -19 12 -24 9 -5 13 -13 9 -17 -4 -4 5 -20 20 -36 15 -15 25
-28 22 -29 -147 -21 -144 -21 -142 31 4 71 54 152 158 258 89 89 127 118 88
68z m815 -236 c48 -66 53 -90 20 -86 -37 5 -80 25 -94 44 -20 26 -5 103 20
101 6 0 30 -26 54 -59z m4348 -95 c13 -31 24 -66 24 -80 0 -13 5 -27 11 -30 6
-5 4 -11 -7 -19 -16 -12 -16 -13 0 -19 16 -6 16 -9 2 -22 -38 -38 -196 11
-196 61 0 35 105 159 138 164 2 0 14 -25 28 -55z m-4124 -189 c37 -8 75 -19
85 -24 10 -6 21 -10 26 -11 23 -2 87 -49 87 -63 0 -22 -53 -62 -105 -79 -22
-7 -44 -17 -49 -21 -19 -15 -46 -9 -46 11 0 23 -15 34 -46 36 -15 0 -20 -4
-16 -14 3 -9 1 -12 -6 -7 -8 5 -10 2 -6 -8 4 -11 0 -16 -11 -16 -9 0 -14 4
-10 9 3 5 1 12 -5 16 -5 3 -10 18 -10 33 0 17 -3 23 -10 16 -7 -7 -6 -26 4
-57 l14 -47 -41 -43 c-37 -38 -128 -99 -280 -186 -23 -13 -44 -27 -47 -31 -3
-4 -21 -16 -40 -26 -19 -11 -64 -39 -100 -63 -36 -24 -97 -61 -137 -82 -39
-20 -103 -56 -141 -78 -68 -39 -111 -59 -142 -66 -8 -2 -27 -6 -42 -10 -18 -5
-28 -3 -28 4 0 6 5 11 10 11 6 0 8 11 4 27 -6 23 -5 25 15 20 17 -4 24 0 30
15 5 15 10 18 15 10 9 -16 51 -5 98 25 21 12 42 23 48 23 6 0 13 7 16 15 3 8
14 17 25 20 11 4 17 11 14 16 -4 5 -14 5 -23 1 -14 -6 -56 -7 -116 -3 -5 1 -3
8 5 17 10 13 10 17 -2 25 -18 11 -29 11 -29 0 0 -5 -16 -26 -35 -47 -19 -20
-35 -42 -34 -48 2 -21 -13 -56 -25 -56 -6 0 -21 -3 -33 -6 -17 -5 -23 -2 -23
10 0 9 5 16 11 16 8 0 8 5 -1 15 -10 12 -9 23 5 57 21 52 100 168 129 188 20
13 37 31 103 102 45 49 250 135 448 188 122 33 307 38 289 8 -4 -7 -2 -8 4 -4
13 8 17 37 5 35 -5 -1 -15 -1 -23 0 -12 1 -12 4 3 15 16 12 15 14 -13 28 l-30
15 20 25 c11 15 20 31 20 37 0 13 58 31 85 26 11 -2 50 -10 87 -19z m3973
-126 c114 -92 195 -140 298 -175 62 -21 190 -107 268 -181 11 -10 19 -12 24
-5 3 6 2 11 -2 11 -5 0 -9 10 -9 23 1 34 -80 188 -135 255 -47 58 -48 60 -29
77 16 14 25 15 49 7 63 -22 219 -159 325 -286 89 -107 103 -147 76 -209 -20
-45 -56 -85 -67 -74 -3 4 -11 0 -17 -7 -11 -15 -31 -19 -77 -17 -28 1 -109 58
-184 130 -82 78 -172 149 -278 218 -54 36 -124 87 -156 113 -31 25 -62 45 -69
42 -8 -2 -10 2 -5 14 5 13 3 16 -10 11 -9 -3 -19 -1 -23 5 -4 7 -3 8 4 4 7 -4
12 -3 12 3 0 5 -30 37 -67 71 -56 50 -62 58 -33 44 19 -9 67 -43 105 -74z
m-4400 -370 c-3 -5 -16 -15 -28 -21 -19 -9 -19 -8 3 10 28 23 34 26 25 11z
m4471 -91 c3 -6 -10 0 -30 13 -20 13 -36 27 -36 31 0 9 56 -28 66 -44z m-4556
36 c0 -2 -10 -10 -22 -16 -21 -11 -22 -11 -9 4 13 16 31 23 31 12z m4591 -62
c13 -16 12 -17 -3 -4 -17 13 -22 21 -14 21 2 0 10 -8 17 -17z m-4736 -37 c-16
-13 -32 -22 -34 -20 -5 5 42 43 54 44 6 0 -3 -11 -20 -24z m3405 -26 c0 -5 -5
-10 -11 -10 -5 0 -7 5 -4 10 3 6 8 10 11 10 2 0 4 -4 4 -10z m-124 -56 c-8
-32 -35 -74 -47 -74 -15 0 -10 34 11 68 24 39 45 43 36 6z m2771 -52 c-4 -8
-21 -46 -67 -154 -29 -68 -50 -97 -50 -70 0 43 96 246 111 236 5 -3 8 -8 6
-12z m-2821 -94 c-11 -57 -76 -103 -135 -96 -21 2 -38 -5 -58 -23 -15 -15 -37
-31 -48 -37 -16 -9 -3 -11 62 -12 75 0 84 -2 97 -22 28 -47 92 -298 75 -298
-5 0 -10 5 -10 10 -3 19 -5 25 -23 60 -28 53 -82 116 -121 140 -43 26 -169 46
-199 31 -12 -5 -27 -11 -35 -13 -12 -3 -10 -9 7 -26 12 -12 22 -25 22 -30 0
-4 19 -27 41 -52 44 -48 89 -131 89 -166 0 -68 88 -194 149 -214 47 -15 56
-11 71 38 21 64 30 60 30 -14 0 -98 -21 -163 -98 -309 -12 -22 -31 -65 -42
-96 -22 -61 -49 -83 -101 -81 -63 2 -104 73 -134 232 -26 136 -49 198 -158
430 -7 14 -26 48 -43 75 -27 44 -64 125 -64 141 0 2 10 -1 23 -8 12 -6 28 -13
35 -14 7 -1 24 -9 37 -18 20 -13 25 -13 35 -1 13 15 -11 71 -53 121 -30 37
-47 68 -47 89 0 14 12 16 83 14 64 -1 101 4 167 24 47 15 105 29 130 33 31 5
52 15 66 32 19 23 127 90 148 91 5 1 6 -13 2 -31z m2844 -128 c0 -5 -4 -10
-10 -10 -5 0 -10 5 -10 10 0 6 5 10 10 10 6 0 10 -4 10 -10z m138 -89 c-3 -62
-9 -96 -22 -116 -10 -14 -15 -33 -12 -41 3 -9 -1 -14 -12 -14 -14 0 -15 -2 -2
-10 12 -7 12 -12 2 -22 -6 -6 -12 -22 -12 -35 0 -14 -6 -23 -16 -23 -8 0 -12
-5 -9 -11 4 -6 -2 -13 -14 -16 -12 -3 -21 -8 -21 -12 0 -4 -16 -8 -37 -8 -25
-1 -32 2 -22 8 10 6 11 11 3 17 -19 12 -35 52 -39 94 -6 68 34 238 57 238 14
0 23 -33 9 -38 -9 -3 -8 -9 5 -23 18 -19 50 -27 39 -9 -3 6 -1 10 4 10 16 0
50 31 72 68 12 17 23 32 26 32 3 0 4 -40 1 -89z m-850 -14 c2 -10 -3 -17 -12
-17 -18 0 -29 16 -21 31 9 14 29 6 33 -14z m517 -57 c7 0 15 8 17 18 2 9 7
-39 11 -108 4 -69 12 -129 17 -134 6 -6 10 -17 10 -25 1 -22 35 -61 54 -61 10
0 13 -6 9 -17 -5 -12 -2 -15 10 -10 21 8 49 -2 41 -14 -9 -15 13 -10 29 6 9 8
17 11 19 7 2 -5 17 -5 35 0 21 5 36 18 45 38 7 17 16 30 20 30 4 0 7 30 7 66
-1 36 1 67 4 70 7 7 20 -412 13 -434 -4 -11 -20 -25 -36 -32 -42 -17 -80 -2
-103 43 -10 20 -25 37 -33 37 -7 0 -11 6 -8 14 3 8 -4 16 -18 20 -18 5 -20 8
-9 15 11 7 9 10 -8 16 -11 3 -21 10 -21 15 0 4 -12 11 -26 14 -41 11 -113 85
-146 151 -17 33 -37 68 -46 77 -13 16 -10 27 39 125 31 63 55 101 57 91 2 -10
10 -18 17 -18z m-534 -117 c85 -90 126 -161 101 -177 -12 -7 -54 40 -84 94
-14 25 -35 62 -47 83 -13 20 -19 37 -14 37 5 0 25 -17 44 -37z m-3225 -70 c-3
-21 -8 -87 -12 -148 -3 -60 -9 -112 -11 -115 -7 -6 5 234 13 273 9 40 17 33
10 -10z m4074 -680 c-86 -190 -136 -276 -198 -342 l-34 -36 30 45 c60 90 87
137 150 263 35 71 66 127 68 124 3 -3 -4 -27 -16 -54z m-26 -129 c-51 -98 -64
-117 -64 -92 0 9 3 18 8 20 4 2 27 45 52 95 25 51 46 87 48 79 2 -7 -18 -53
-44 -102z m-3813 -41 c-7 -32 -17 -68 -22 -81 -11 -29 -12 -62 -1 -62 5 0 23
7 41 16 19 10 42 13 57 10 27 -7 67 -42 77 -67 4 -10 17 -2 46 31 23 25 41 50
41 55 0 6 8 19 16 30 15 19 16 16 11 -46 -5 -74 -23 -117 -84 -204 -55 -80
-263 -292 -263 -269 0 3 11 20 25 38 14 18 25 39 25 47 0 8 7 23 15 33 19 25
18 135 -1 143 -15 5 -114 -45 -114 -59 0 -4 -7 -8 -15 -8 -8 0 -40 -33 -70
-74 -51 -67 -85 -98 -85 -78 0 4 23 48 51 97 28 49 68 127 89 174 73 165 161
343 167 337 4 -3 1 -32 -6 -63z m-1047 -18 c-4 -8 -9 -15 -13 -15 -10 0 -33
-51 -27 -57 3 -3 17 4 33 15 35 24 89 37 98 23 10 -17 85 -10 85 7 0 9 3 12 7
9 3 -4 12 -2 18 3 8 7 17 4 27 -8 18 -20 29 -70 18 -77 -5 -3 -6 -14 -3 -25 6
-23 -65 -207 -111 -287 -30 -53 -55 -68 -55 -35 -1 49 -15 122 -23 122 -6 0
-7 11 -4 26 5 17 3 23 -4 19 -5 -3 -10 2 -11 12 0 14 -3 12 -11 -7 -9 -21 -12
-22 -15 -7 -3 10 -9 14 -16 10 -7 -4 -18 -8 -24 -8 -7 0 -13 -4 -14 -10 -4
-29 -91 -56 -105 -33 -4 6 -8 41 -9 76 -2 59 1 70 38 131 47 79 141 169 121
116z m4766 -110 c-7 -9 -15 -13 -18 -10 -3 2 1 11 8 20 7 9 15 13 18 10 3 -2
-1 -11 -8 -20z m140 -9 c0 -14 -136 -196 -146 -196 -2 0 20 33 49 73 30 39 63
87 73 105 20 36 24 38 24 18z m-280 -179 c-149 -142 -307 -223 -514 -263 -83
-16 -196 -21 -215 -10 -28 17 -2 24 117 29 229 9 414 86 592 247 73 66 90 64
20 -3z m-205 -10 c-6 -24 -87 -97 -108 -97 -5 0 -23 -6 -40 -14 -54 -24 -157
-40 -157 -25 0 10 99 31 111 24 5 -4 6 0 3 8 -3 9 11 22 41 37 25 13 50 29 56
37 6 7 16 13 21 13 6 0 24 11 40 25 35 30 42 28 33 -8z m-3776 -203 c-85 -148
-105 -186 -133 -256 -28 -70 -35 -138 -14 -138 18 0 -12 -26 -39 -35 -15 -4
-23 -2 -23 5 0 6 -4 8 -10 5 -10 -6 -14 14 -10 45 5 41 265 478 277 466 2 -2
-19 -43 -48 -92z m2564 15 c61 -31 138 -89 131 -100 -3 -5 -1 -9 4 -9 6 0 13
-7 16 -16 5 -14 1 -13 -26 3 -18 11 -44 26 -58 34 -14 8 -27 16 -30 20 -3 3
-26 20 -52 39 -72 50 -63 68 15 29z m-3485 -19 c7 -11 21 -20 31 -20 34 0 33
-18 -4 -55 -23 -25 -35 -46 -35 -65 0 -16 -4 -31 -10 -35 -5 -3 -6 -13 -3 -22
5 -12 3 -14 -7 -8 -10 6 -12 4 -7 -8 4 -11 2 -14 -9 -10 -7 3 -14 0 -14 -6 0
-6 5 -11 10 -11 6 0 10 -7 10 -15 0 -10 11 -15 35 -15 19 0 35 4 35 8 0 4 15
13 33 20 17 7 53 32 79 57 l46 45 8 -32 c4 -18 9 -27 11 -20 7 19 23 14 23 -8
0 -11 -4 -20 -10 -20 -5 0 -10 -5 -10 -10 0 -14 -48 -67 -83 -92 -19 -14 -31
-17 -40 -10 -7 6 -37 13 -67 17 -30 4 -73 15 -95 25 -37 16 -60 24 -140 47
-68 19 -34 88 94 189 52 41 97 74 100 74 3 0 12 -9 19 -20z m3336 -82 c25 -28
42 -56 39 -61 -4 -6 1 -8 10 -4 14 5 16 2 11 -17 -3 -13 -1 -27 5 -30 7 -4 7
-15 1 -31 -7 -20 -6 -25 10 -30 11 -4 29 -3 40 0 15 5 22 0 29 -18 6 -14 15
-28 21 -32 21 -13 56 -100 55 -140 -1 -41 -24 -105 -38 -105 -5 0 -6 -4 -3 -9
7 -11 -36 -56 -87 -91 -19 -13 -33 -28 -31 -32 3 -5 -5 -12 -18 -17 -25 -10
-74 -61 -70 -73 1 -5 -5 -8 -13 -8 -8 0 -15 -6 -15 -14 0 -8 -7 -16 -15 -20
-8 -3 -15 -12 -15 -21 0 -8 -4 -15 -10 -15 -5 0 -10 -9 -10 -20 0 -11 -6 -20
-14 -20 -25 0 -27 -41 -3 -61 12 -10 26 -18 31 -19 11 0 74 46 103 77 20 21
53 32 53 18 0 -23 -166 -221 -269 -322 -89 -86 -129 -109 -151 -88 -13 13 -12
19 3 45 10 16 26 53 37 82 10 29 28 77 39 106 14 38 17 61 11 81 -4 16 -6 32
-2 35 3 3 1 6 -4 6 -6 0 -19 28 -29 63 -10 34 -33 85 -50 112 -83 133 -78 207
25 370 11 17 32 57 48 90 26 55 92 141 92 120 0 -4 25 26 57 68 31 42 62 77
69 77 7 0 33 -23 58 -52z m1376 37 c0 -2 -10 -9 -22 -15 -22 -11 -22 -10 -4 4
21 17 26 19 26 11z m-2384 -90 c1 -38 -34 -69 -122 -106 -38 -16 -86 -38 -106
-49 -61 -33 -44 -9 25 35 81 52 159 128 151 148 -5 13 0 14 23 8 22 -6 28 -13
29 -36z m-274 -13 c11 -11 17 -25 13 -32 -5 -9 -142 -119 -313 -253 -7 -5 -16
-7 -19 -3 -4 4 -3 10 2 14 6 4 29 30 53 58 61 75 92 155 70 181 -16 19 8 42
50 47 18 2 35 6 38 8 12 13 88 -1 106 -20z m1698 -82 c0 -5 -4 -10 -10 -10 -5
0 -10 5 -10 10 0 6 5 10 10 10 6 0 10 -4 10 -10z m-310 -10 c0 -5 -4 -10 -10
-10 -5 0 -10 5 -10 10 0 6 5 10 10 10 6 0 10 -4 10 -10z m-3515 -178 c46 -25
50 -30 51 -64 1 -40 -14 -50 -35 -24 -18 21 -81 52 -121 60 -34 6 -36 8 -32
40 l4 33 41 -9 c23 -5 64 -21 92 -36z m2361 19 c-4 -5 -39 -23 -80 -40 -117
-48 -130 -39 -26 18 51 29 118 42 106 22z m-844 -129 c1 -17 -5 -38 -12 -47
-7 -8 -10 -15 -7 -15 15 0 -57 -122 -92 -158 -23 -23 -44 -42 -46 -42 -8 0 8
35 40 86 44 69 50 90 28 99 -28 13 -73 12 -133 -2 -67 -15 -70 -16 -70 -3 0 6
5 10 11 10 6 0 59 24 117 52 156 77 162 77 164 20z m698 28 c0 -5 -15 -10 -32
-10 -25 0 -29 3 -18 10 20 13 50 13 50 0z m2030 -3 c0 -2 -10 -12 -22 -23
l-23 -19 19 23 c18 21 26 27 26 19z m-56 -68 c-3 -5 -10 -7 -15 -3 -5 3 -7 10
-3 15 3 5 10 7 15 3 5 -3 7 -10 3 -15z m-1921 -96 c-2 -27 -10 -75 -18 -108
-14 -60 -35 -200 -35 -236 0 -11 7 -19 17 -19 9 0 14 3 10 6 -3 3 7 43 23 87
15 45 33 98 38 117 10 34 10 33 11 -21 1 -62 34 -136 79 -179 48 -45 102 -110
102 -121 0 -18 -44 -2 -117 43 -37 23 -70 45 -73 48 -3 3 -21 5 -41 6 -30 0
-38 -4 -48 -28 -16 -36 -61 -40 -61 -5 0 32 25 155 59 292 16 66 32 133 35
148 10 44 24 22 19 -30z m611 -114 c-3 -6 2 -16 11 -23 17 -12 17 -13 1 -19
-12 -5 -19 0 -25 16 -5 12 -5 23 0 25 5 2 6 9 3 14 -4 7 -2 8 5 4 6 -4 9 -12
5 -17z m608 -71 c-7 -7 -12 -8 -12 -2 0 14 12 26 19 19 2 -3 -1 -11 -7 -17z
m-581 -3 c0 -6 7 -20 15 -33 10 -16 15 -47 15 -95 -1 -98 -3 -117 -17 -117 -8
0 -13 24 -13 73 -3 125 -4 147 -11 147 -3 0 -6 9 -7 21 -1 11 3 19 8 17 6 -2
10 -8 10 -13z m-1936 -88 c20 -21 21 -71 2 -100 -20 -31 -22 -41 -5 -31 7 4
24 9 38 10 23 2 23 0 -15 -33 -37 -32 -326 -275 -436 -365 -38 -31 -104 -68
-122 -68 -2 0 -10 23 -17 50 -12 45 -20 55 -42 51 -8 -1 -1 20 18 57 14 27 69
85 120 127 20 17 43 36 50 43 7 6 15 12 18 12 12 0 46 41 46 55 0 13 -4 14
-20 5 -11 -6 -20 -8 -20 -4 0 3 -6 2 -12 -3 -7 -6 -30 -13 -50 -17 -21 -4 -38
-10 -38 -15 0 -4 -12 -6 -27 -4 -16 3 -61 -7 -100 -20 -40 -14 -73 -22 -73
-19 1 16 160 122 236 158 22 10 45 24 52 31 7 7 23 13 35 13 13 0 32 7 44 15
12 8 50 18 85 21 35 4 68 11 75 16 6 5 33 7 60 4 32 -4 41 -3 28 3 -18 8 -17
9 10 13 17 3 34 6 38 7 5 0 14 -5 22 -12z m245 -251 c0 -2 -8 -10 -17 -17 -16
-13 -17 -12 -4 4 13 16 21 21 21 13z m1346 -226 c5 -5 38 -21 74 -35 44 -17
54 -23 30 -19 -46 8 -162 62 -134 63 11 1 24 -3 30 -9z m2699 -117 c9 -88 1
-902 -9 -923 -9 -21 -88 -48 -131 -45 -24 1 -35 -2 -35 -12 0 -7 -11 -13 -25
-13 -17 0 -23 -4 -19 -14 3 -8 -3 -17 -14 -20 -11 -4 -23 -13 -26 -21 -3 -8
-13 -15 -21 -15 -9 0 -31 -11 -49 -25 -18 -14 -36 -25 -40 -25 -4 0 -12 -5
-19 -10 -7 -6 -49 -40 -95 -77 -77 -61 -256 -237 -315 -308 -14 -17 -35 -49
-47 -72 l-22 -42 21 -30 c19 -26 29 -30 88 -37 90 -9 179 13 453 116 139 52
200 70 237 70 33 0 35 -2 29 -25 -4 -14 -3 -25 1 -24 23 4 33 -4 33 -25 0 -27
-9 -30 -110 -41 -89 -10 -146 -24 -300 -75 -238 -79 -268 -85 -420 -84 -74 0
-161 5 -192 11 -43 7 -62 6 -82 -4 -23 -12 -36 -11 -99 6 -73 21 -120 24 -110
8 2 -4 -4 -16 -16 -26 -11 -10 -17 -21 -13 -25 8 -9 -74 -1 -100 9 -20 8 -48
48 -48 69 0 23 23 61 65 105 22 23 47 54 55 69 20 34 69 110 185 287 111 169
171 291 220 450 20 66 41 124 46 129 5 6 9 19 9 30 0 12 9 32 20 46 11 14 20
28 20 32 0 9 89 148 107 168 81 89 105 112 151 144 31 21 74 41 105 47 56 12
101 22 158 37 44 11 120 53 114 62 -4 6 27 38 93 99 12 12 26 21 32 21 5 0 13
6 17 14 4 7 18 18 31 25 12 6 22 17 22 24 0 7 9 13 19 13 17 0 21 -10 26 -73z
m-4850 -3 c3 -5 1 -10 -4 -10 -6 0 -11 5 -11 10 0 6 2 10 4 10 3 0 8 -4 11
-10z m-55 -54 c0 -3 -4 -8 -10 -11 -5 -3 -10 -1 -10 4 0 6 5 11 10 11 6 0 10
-2 10 -4z m1140 -76 c0 -5 -5 -10 -11 -10 -5 0 -7 5 -4 10 3 6 8 10 11 10 2 0
4 -4 4 -10z m-70 -54 c0 -2 -7 -7 -16 -10 -8 -3 -12 -2 -9 4 6 10 25 14 25 6z
m-600 -400 c0 -2 -7 -7 -16 -10 -8 -3 -12 -2 -9 4 6 10 25 14 25 6z m1475
-322 c20 -20 23 -29 15 -39 -7 -8 -9 -19 -6 -24 4 -5 2 -12 -4 -16 -5 -3 -10
-15 -10 -25 0 -11 -9 -35 -19 -53 -11 -19 -24 -44 -30 -56 -6 -11 -16 -31 -23
-43 -6 -13 -31 -61 -56 -108 -24 -47 -48 -90 -53 -96 -5 -6 -6 -14 -2 -17 3
-4 2 -7 -4 -7 -5 0 -18 -19 -29 -42 -33 -76 -86 -142 -108 -135 -44 15 -65
152 -38 256 7 29 11 56 8 58 -3 3 3 17 14 30 10 13 17 30 14 37 -3 7 2 19 11
26 8 7 15 21 15 31 0 11 5 19 10 19 6 0 10 7 10 15 0 15 22 46 53 74 9 8 17
21 17 28 0 8 11 18 25 23 14 5 25 16 25 24 0 8 10 18 23 22 12 4 25 11 28 16
4 6 20 11 37 12 17 1 34 5 38 9 10 10 10 10 39 -19z m-1675 -548 c0 -11 -19
-15 -25 -6 -3 5 1 10 9 10 9 0 16 -2 16 -4z m-1779 -59 c-10 -9 -11 -8 -5 6 3
10 9 15 12 12 3 -3 0 -11 -7 -18z m1678 -21 c-2 -2 -19 -1 -37 1 -33 5 -33 6
-10 18 18 10 26 9 37 -1 8 -8 13 -15 10 -18z m-1807 -38 c-7 -7 -12 -8 -12 -2
0 14 12 26 19 19 2 -3 -1 -11 -7 -17z m1782 13 c4 -5 -3 -7 -14 -4 -23 6 -26
13 -6 13 8 0 17 -4 20 -9z m-1143 -208 c-8 -15 -10 -15 -11 -2 0 17 10 32 18
25 2 -3 -1 -13 -7 -23z m-11 -27 c0 -3 -4 -8 -10 -11 -5 -3 -10 -1 -10 4 0 6
5 11 10 11 6 0 10 -2 10 -4z m4426 -75 c69 -22 408 -146 439 -161 44 -22 -52
4 -176 46 -141 48 -339 124 -339 130 0 7 14 4 76 -15z m364 -172 c47 -10 145
-38 244 -70 61 -19 69 -14 13 9 -31 12 -30 12 18 6 85 -9 345 -64 366 -77 28
-17 31 -35 6 -43 -12 -4 -23 -2 -25 4 -2 6 -9 9 -17 6 -7 -3 -37 2 -66 10 -29
9 -60 16 -68 16 -16 -1 -10 -7 43 -46 31 -22 10 -28 -36 -11 -24 9 -131 43
-238 78 -162 51 -299 105 -319 125 -7 7 32 4 79 -7z m-1058 -45 c98 -111 153
-207 142 -250 -6 -24 -5 -26 16 -19 27 9 19 0 -130 -135 -235 -213 -361 -339
-490 -491 -25 -29 -59 -69 -76 -88 -52 -60 -124 -166 -264 -391 -198 -317
-253 -391 -392 -533 -103 -105 -98 -94 20 42 45 53 110 136 144 185 59 86 188
334 243 466 104 253 271 503 472 707 88 90 102 109 100 133 -4 36 -24 61 -43
53 -17 -6 -18 1 -3 30 21 41 52 67 80 67 15 0 29 6 32 14 8 19 -3 57 -14 50
-5 -3 -9 -3 -9 0 0 13 123 196 131 196 5 0 24 -16 41 -36z m1281 -103 c66 -30
93 -53 82 -71 -4 -6 -16 -8 -28 -5 -55 16 -187 97 -187 115 0 12 59 -6 133
-39z m538 -85 c10 -4 25 -6 34 -4 9 2 24 -7 32 -19 13 -19 12 -23 -9 -42 -27
-26 -92 -65 -83 -51 3 5 -3 10 -14 10 -13 0 -22 7 -23 18 -4 48 -2 88 5 93 9
7 36 4 58 -5z m-151 -81 c21 -26 -1 -55 -60 -81 -80 -34 -180 -30 -180 6 0 4
19 15 43 25 23 10 65 28 92 41 59 27 88 30 105 9z m160 -90 c0 -7 -17 -24 -37
-36 -33 -20 -51 -24 -130 -24 -115 0 -144 18 -57 34 33 7 84 18 114 25 75 17
110 18 110 1z m350 -79 c0 -53 0 -54 -40 -70 -108 -43 -347 -68 -398 -42 -16
8 -41 16 -55 18 -14 2 -29 7 -33 11 -4 4 -17 7 -29 7 -12 0 -29 6 -39 13 -17
13 -16 14 12 26 17 7 36 10 41 6 17 -10 271 -14 277 -4 3 5 25 9 50 9 24 0 44
5 44 10 0 6 14 10 30 10 17 0 30 5 30 10 0 6 7 10 15 10 14 0 24 4 75 31 8 4
16 8 18 8 1 1 2 -23 2 -53z m-4150 -333 c0 -7 -89 59 -103 76 -7 8 14 -5 46
-28 31 -24 57 -45 57 -48z m3020 33 c0 -24 -158 -86 -255 -100 -30 -4 -16 4
55 33 52 21 115 48 140 59 55 25 60 26 60 8z m-920 -14 c0 -4 -41 -48 -91 -97
-50 -50 -97 -103 -106 -119 -24 -46 -101 -123 -183 -184 -41 -31 -101 -81
-134 -112 -32 -30 -64 -59 -71 -65 -6 -5 -45 -41 -86 -80 -41 -38 37 43 173
180 135 138 298 303 361 368 102 105 137 133 137 109z m-820 -202 c-6 -11 -13
-20 -16 -20 -2 0 0 9 6 20 6 11 13 20 16 20 2 0 0 -9 -6 -20z m270 -117 c-118
-176 -396 -543 -453 -598 -21 -20 -24 -21 -10 -5 11 14 58 79 103 145 45 66
113 158 149 205 37 47 102 135 146 195 96 135 128 175 133 170 3 -2 -28 -53
-68 -112z m-2066 -757 c-14 -48 -29 -85 -31 -82 -2 2 8 43 23 90 14 48 29 85
31 82 2 -2 -8 -43 -23 -90z m441 22 c-11 -130 -16 -159 -45 -229 -16 -39 -31
-73 -34 -76 -10 -10 -32 22 -32 47 0 14 -4 42 -8 62 -11 50 5 93 65 172 27 36
47 66 44 66 -4 0 -3 5 0 10 13 20 15 8 10 -52z m-526 -289 c-28 -85 -69 -201
-91 -259 -56 -146 -127 -329 -143 -365 -7 -16 -43 -102 -80 -190 -146 -346
-237 -516 -459 -852 -108 -164 -87 -96 33 105 70 118 177 331 256 510 32 74
64 139 70 146 6 6 10 16 8 22 -2 7 3 18 10 26 8 8 23 33 34 56 11 23 23 39 27
35 4 -4 4 0 0 10 -4 11 -1 17 8 17 9 0 37 58 78 163 36 89 74 180 86 202 47
90 144 338 190 489 10 32 20 54 21 49 2 -5 -19 -79 -48 -164z m-1069 -147 c0
-11 -118 -122 -130 -122 -23 0 -7 30 38 69 26 22 52 45 57 50 12 12 35 14 35
3z m861 -89 c-11 -21 -20 -35 -21 -31 0 12 33 78 38 74 2 -2 -6 -21 -17 -43z
m-1976 17 c10 -11 16 -20 13 -20 -3 0 -13 9 -23 20 -10 11 -16 20 -13 20 3 0
13 -9 23 -20z m3055 -124 c0 -2 -8 -10 -17 -17 -16 -13 -17 -12 -4 4 13 16 21
21 21 13z m-2785 -114 c39 -22 95 -48 125 -57 79 -24 103 -35 60 -28 -114 18
-205 62 -285 138 -45 42 -46 44 -10 18 22 -17 72 -48 110 -71z m2740 78 c-8
-13 -319 -249 -405 -307 -56 -38 -471 -347 -525 -391 -91 -74 -384 -342 -491
-449 -40 -40 -75 -73 -78 -73 -7 0 43 88 73 130 14 19 52 64 86 98 69 73 69
73 155 172 143 166 279 294 480 450 52 41 97 77 100 80 11 14 212 170 218 170
4 0 -6 -11 -23 -25 -231 -191 -430 -385 -406 -393 21 -7 194 102 426 268 39
27 93 65 120 84 28 19 100 71 160 115 116 84 120 87 110 71z m-255 -35 c-30
-19 -63 -38 -72 -41 -9 -3 -19 -13 -22 -21 -3 -8 -10 -11 -16 -8 -40 25 -492
-340 -818 -660 -84 -82 -156 -152 -159 -155 -3 -3 8 22 25 55 25 50 55 82 183
195 490 435 667 567 859 646 78 32 83 29 20 -11z m-2447 -134 c20 -22 20 -23
2 -13 -11 6 -36 25 -55 42 l-35 31 33 -18 c18 -10 43 -29 55 -42z m6627 -41
c0 -5 -5 -10 -11 -10 -5 0 -7 5 -4 10 3 6 8 10 11 10 2 0 4 -4 4 -10z m-40
-34 c0 -2 -7 -7 -16 -10 -8 -3 -12 -2 -9 4 6 10 25 14 25 6z m50 -21 c0 -4
-40 -34 -184 -135 -54 -38 -140 -110 -132 -110 3 0 -37 -40 -88 -89 -95 -90
-166 -147 -246 -195 l-45 -27 53 46 c28 26 52 51 52 55 0 7 -125 -64 -205
-116 -128 -84 252 199 438 326 12 8 93 68 181 132 144 107 176 128 176 113z
m-105 -13 c-41 -36 -136 -104 -140 -101 -4 5 135 109 145 109 2 0 0 -4 -5 -8z
m-205 -152 c0 -5 -5 -10 -11 -10 -5 0 -7 5 -4 10 3 6 8 10 11 10 2 0 4 -4 4
-10z m-45 -30 c-3 -5 -16 -15 -28 -21 -21 -10 -21 -9 2 10 25 23 36 27 26 11z
m-6125 -30 c0 -5 -4 -10 -10 -10 -5 0 -10 5 -10 10 0 6 5 10 10 10 6 0 10 -4
10 -10z m6060 -13 c0 -2 -13 -13 -30 -25 -16 -13 -30 -19 -30 -15 0 5 12 16
28 25 28 18 32 20 32 15z m-181 -130 c-2 -2 -17 -11 -34 -21 l-30 -17 24 20
c13 12 28 21 34 21 6 0 8 -1 6 -3z m-109 -72 c-7 -8 -17 -15 -23 -15 -6 0 -2
7 9 15 25 19 30 19 14 0z m-50 -29 c0 -2 -12 -11 -27 -20 l-28 -17 24 20 c23
21 31 25 31 17z m-70 -51 c-7 -9 -15 -13 -19 -10 -3 3 1 10 9 15 21 14 24 12
10 -5z m164 -86 c-3 -6 0 -15 7 -20 7 -4 10 -11 6 -16 -5 -4 -12 -1 -17 7 -7
12 -12 12 -22 2 -9 -9 -9 -12 1 -12 7 0 11 -6 8 -15 -4 -8 -2 -17 4 -20 19
-12 -2 -25 -22 -14 -11 6 -27 8 -35 5 -8 -3 -24 0 -34 6 -17 11 -69 -12 -398
-180 -209 -105 -383 -192 -388 -192 -20 0 73 53 281 160 121 62 279 143 350
180 72 37 154 75 182 84 29 10 55 22 58 27 4 5 11 9 16 9 6 0 7 -5 3 -11z
m-4244 -194 c0 -8 -9 -15 -20 -15 -11 0 -20 7 -20 15 0 8 9 15 20 15 11 0 20
-7 20 -15z m3320 -425 c-22 -32 -40 -62 -40 -66 0 -3 -15 -32 -34 -63 -19 -31
-58 -102 -86 -159 -29 -56 -55 -101 -57 -98 -5 5 8 35 67 156 45 94 76 150 89
163 6 6 11 16 11 21 0 6 -10 -2 -22 -18 -13 -15 -33 -40 -46 -55 -12 -14 -39
-49 -60 -78 -20 -29 -43 -55 -50 -57 -7 -3 31 51 83 120 52 68 95 128 95 132
1 9 70 62 81 62 4 0 -10 -27 -31 -60z m-3548 -95 c-2 -19 -8 -38 -13 -41 -5
-3 -9 -15 -9 -28 0 -12 -3 -26 -7 -30 -4 -3 -8 -33 -10 -64 -4 -61 19 -150 71
-287 15 -38 28 -74 30 -80 4 -20 39 -79 57 -98 19 -21 26 -51 10 -45 -15 5
-107 121 -129 163 -12 22 -35 85 -52 140 -17 55 -35 110 -41 123 -5 13 -9 45
-9 72 0 40 4 52 26 69 14 11 23 24 20 29 -3 6 1 15 9 22 8 7 12 17 9 22 -4 6
-1 14 5 18 7 4 13 17 14 28 1 12 6 22 12 22 7 0 9 -14 7 -35z m5110 -273 c-11
-15 -22 -36 -26 -47 -3 -11 -20 -36 -36 -55 l-29 -35 -1 45 c0 25 6 71 14 103
7 31 11 57 8 57 -2 0 0 6 5 13 6 6 13 24 17 39 3 15 19 39 34 53 l27 25 3 -85
c2 -71 0 -90 -16 -113z m-5774 128 c-7 -11 -16 -20 -21 -20 -4 0 -5 -4 -2 -10
3 -5 -1 -10 -9 -10 -9 0 -16 -3 -16 -7 0 -5 -17 -21 -38 -38 l-37 -30 33 42
c30 39 88 93 98 93 2 0 -1 -9 -8 -20z m-98 -181 c0 -13 4 -18 12 -13 7 5 9 2
5 -9 -3 -8 1 -21 9 -28 11 -9 12 -15 3 -25 -20 -25 -39 -16 -40 19 -1 17 -2
44 -3 59 -1 15 2 24 6 22 4 -3 8 -14 8 -25z m4081 -22 c-8 -8 -11 -7 -11 4 0
20 13 34 18 19 3 -7 -1 -17 -7 -23z m-3151 -357 c0 -5 -2 -10 -4 -10 -3 0 -8
5 -11 10 -3 6 -1 10 4 10 6 0 11 -4 11 -10z"/>
<path d="M4717 10800 c-25 -8 -96 -59 -138 -101 -15 -15 -70 -118 -76 -144 -2
-5 -12 -43 -23 -83 -21 -80 -22 -89 -46 -377 -10 -123 -14 -244 -10 -315 6
-121 -1 -184 -35 -337 -12 -51 -19 -99 -15 -108 8 -21 61 -19 111 4 58 26 124
85 165 146 19 30 87 107 150 171 114 117 116 118 163 120 34 2 63 11 95 32 26
16 68 42 94 58 30 18 48 37 48 49 1 20 2 20 9 0 7 -18 8 -17 14 7 5 17 0 43
-12 71 l-20 45 34 16 c18 9 37 16 42 16 4 0 28 19 53 41 65 58 75 59 321 45
100 -6 117 -5 122 9 8 19 -1 42 -19 49 -8 3 -14 12 -14 21 0 8 -3 15 -7 15 -5
1 -39 30 -77 65 -38 36 -76 65 -83 65 -8 0 -12 4 -8 9 5 10 -19 28 -40 30 -5
1 -10 4 -10 9 -1 27 -60 39 -92 19 -7 -5 -17 -6 -22 -3 -7 5 -33 -36 -35 -56
-1 -3 -4 -10 -8 -14 -5 -4 -8 -15 -8 -25 0 -20 -21 -29 -82 -33 -41 -2 -88
-23 -88 -38 0 -5 -7 -8 -16 -8 -21 0 -134 52 -134 61 0 22 -175 96 -229 97
-26 1 -71 -25 -71 -40 0 -5 -9 -22 -19 -36 -10 -15 -19 -29 -19 -32 0 -3 -5
-25 -12 -50 -7 -25 -14 -75 -15 -112 -2 -37 -5 -71 -8 -75 -5 -9 -1 -137 7
-263 6 -91 -7 -129 -39 -117 -25 10 -35 53 -45 187 -20 266 -6 518 30 554 5 5
10 16 10 23 0 15 6 24 68 93 35 40 50 49 83 52 25 2 44 -1 51 -9 6 -7 17 -13
24 -13 8 0 14 -4 14 -8 0 -11 30 -44 52 -57 9 -5 37 -25 62 -42 26 -18 50 -33
55 -33 4 0 16 -8 27 -18 35 -33 82 -46 109 -32 27 14 39 48 23 67 -6 7 -8 22
-5 33 3 11 0 23 -6 28 -7 4 -17 16 -24 27 -6 11 -16 19 -23 17 -6 -1 -9 2 -5
8 3 6 -1 17 -9 26 -9 8 -16 22 -16 30 0 8 -7 14 -15 14 -8 0 -15 6 -15 13 0
17 -62 87 -77 87 -7 0 -16 6 -20 13 -21 36 -173 59 -246 37z m768 -360 c3 -5
1 -10 -4 -10 -6 0 -11 5 -11 10 0 6 2 10 4 10 3 0 8 -4 11 -10z m-935 -891 c0
-30 -34 -79 -56 -79 -19 0 -18 9 12 75 27 59 44 60 44 4z"/>
<path d="M5540 10475 c0 -11 169 -135 185 -135 15 0 2 31 -17 41 -13 7 -53 32
-89 56 -63 41 -79 49 -79 38z"/>
<path d="M3077 9934 c-11 -12 21 -58 75 -109 96 -91 118 -109 124 -102 10 10
-71 115 -130 169 -52 49 -58 53 -69 42z"/>
<path d="M3006 9848 c-7 -30 6 -41 29 -24 16 12 17 16 6 30 -18 22 -28 20 -35
-6z"/>
<path d="M2996 9581 c-3 -5 -13 -53 -22 -107 -22 -139 -52 -305 -60 -333 -5
-15 -3 -22 3 -18 6 4 23 41 38 83 15 41 40 89 55 106 15 16 30 46 33 67 7 42
-5 144 -21 184 -12 29 -17 32 -26 18z"/>
<path d="M5445 9559 c-75 -10 -162 -37 -125 -38 41 -2 230 32 230 41 0 9 -21
9 -105 -3z"/>
<path d="M4615 9286 c-48 -22 -106 -99 -87 -118 14 -14 90 22 124 58 28 30 32
67 7 71 -8 1 -27 -4 -44 -11z"/>
<path d="M4650 9083 c-13 -16 -46 -54 -73 -85 -27 -31 -47 -62 -45 -69 4 -13
113 103 141 150 22 38 9 40 -23 4z"/>
<path d="M5266 9101 c-4 -6 -9 -80 -7 -118 1 -32 45 -68 141 -116 l85 -42 140
4 c203 5 328 5 430 1 61 -3 97 0 113 9 44 24 17 44 -118 90 -62 22 -79 33
-105 67 -16 23 -38 46 -47 52 -18 12 -139 25 -398 43 -91 6 -180 12 -198 14
-17 2 -34 0 -36 -4z"/>
<path d="M2901 9084 c0 -11 3 -14 6 -6 3 7 2 16 -1 19 -3 4 -6 -2 -5 -13z"/>
<path d="M3733 8698 c28 -7 42 -7 50 1 8 8 -2 11 -38 10 l-50 -1 38 -10z"/>
<path d="M4195 8660 c-71 -9 -213 -35 -270 -49 -30 -8 -11 -9 80 -5 66 3 170
0 230 -6 230 -23 240 -23 253 -8 9 12 7 19 -12 37 -41 39 -135 49 -281 31z"/>
<path d="M6395 11532 c-9 -9 -5 -42 5 -42 5 0 16 -13 25 -29 11 -23 12 -31 2
-35 -9 -5 -9 -7 1 -12 6 -3 12 -13 12 -23 0 -10 25 -44 55 -76 30 -33 55 -63
55 -68 0 -4 11 -12 25 -17 14 -5 28 -17 31 -25 4 -8 14 -15 23 -15 10 0 27
-14 40 -30 15 -21 28 -29 40 -25 10 3 24 -1 31 -9 11 -14 15 -13 35 2 13 9 22
19 20 22 -2 3 -6 28 -9 55 -10 72 -15 87 -44 118 -14 15 -22 27 -18 27 5 0
-14 20 -40 45 -27 25 -57 45 -66 45 -10 0 -18 5 -18 11 0 5 -15 16 -34 24 -19
8 -38 20 -41 25 -14 23 -114 47 -130 32z m32 -18 c-3 -3 -12 -4 -19 -1 -8 3
-5 6 6 6 11 1 17 -2 13 -5z"/>
<path d="M780 11855 c0 -8 -5 -15 -11 -15 -8 0 -8 -4 -2 -12 5 -7 15 -32 22
-55 12 -45 19 -51 39 -31 16 16 15 48 0 48 -10 0 -9 3 1 9 11 7 10 13 -4 34
-19 30 -45 43 -45 22z"/>
<path d="M5080 8223 c-38 -17 -78 -69 -126 -163 -15 -30 -29 -57 -29 -60 -1
-3 -7 -18 -14 -35 -16 -39 -19 -115 -5 -115 6 0 28 -8 49 -19 35 -17 41 -17
62 -4 12 8 26 12 31 9 12 -7 108 88 123 124 8 16 18 30 23 30 5 0 6 14 3 30
-5 24 -3 30 10 30 12 0 14 3 6 11 -6 6 -7 25 -3 49 5 29 4 40 -6 44 -8 3 -14
11 -14 18 0 9 3 8 10 -2 8 -13 10 -12 10 3 0 12 -8 17 -25 17 -16 0 -25 6 -25
15 0 8 -9 15 -19 15 -11 0 -21 4 -23 9 -1 5 -19 2 -38 -6z"/>
<path d="M4990 7490 c19 -13 30 -13 30 0 0 6 -10 10 -22 10 -19 0 -20 -2 -8
-10z"/>
<path d="M2160 6986 c0 -9 5 -16 10 -16 6 0 10 4 10 9 0 6 -4 13 -10 16 -5 3
-10 -1 -10 -9z"/>
<path d="M6860 5980 c0 -5 7 -10 15 -10 8 0 15 5 15 10 0 6 -7 10 -15 10 -8 0
-15 -4 -15 -10z"/>
<path d="M6598 4303 c6 -2 18 -2 25 0 6 3 1 5 -13 5 -14 0 -19 -2 -12 -5z"/>
<path d="M4151 11724 c0 -11 3 -14 6 -6 3 7 2 16 -1 19 -3 4 -6 -2 -5 -13z"/>
<path d="M4153 11645 c0 -33 2 -45 4 -27 2 18 2 45 0 60 -2 15 -4 0 -4 -33z"/>
<path d="M1858 10929 c-40 -9 -48 -13 -238 -126 -74 -44 -186 -108 -247 -142
-125 -70 -148 -89 -73 -60 42 16 121 28 82 12 -6 -2 -10 -9 -7 -13 9 -15 -18
-50 -39 -50 -15 0 -16 -3 -7 -14 10 -11 4 -20 -29 -43 -23 -15 -61 -43 -85
-60 -24 -18 -48 -33 -52 -33 -5 0 -15 -8 -24 -17 -8 -10 -88 -65 -178 -123
-332 -215 -460 -300 -467 -312 -4 -6 8 -2 27 9 45 27 185 106 229 128 34 17
34 17 20 0 -14 -17 -14 -17 7 -7 12 7 59 34 104 62 45 27 91 50 102 50 11 0
83 38 161 84 138 83 386 209 436 221 28 7 -66 -53 -144 -92 -102 -50 -216
-117 -216 -125 0 -5 42 13 93 40 120 66 249 132 255 132 13 0 -30 -38 -78 -69
-47 -31 -52 -36 -32 -39 29 -4 91 15 227 72 93 39 120 46 176 46 61 0 68 -3
108 -36 23 -21 47 -48 52 -60 9 -24 52 -34 63 -15 3 5 22 12 42 15 26 5 34 11
30 22 -3 8 -1 12 4 9 5 -3 17 20 26 52 25 85 6 283 -27 283 -4 0 -26 26 -47
58 -53 77 -109 130 -152 142 -40 11 -51 11 -102 -1z"/>
<path d="M1510 10853 c-19 -8 -239 -134 -400 -231 -176 -105 -560 -378 -560
-398 0 -5 41 23 305 206 133 93 242 160 440 270 196 109 307 188 215 153z"/>
<path d="M1205 10620 c-3 -6 1 -7 9 -4 18 7 21 14 7 14 -6 0 -13 -4 -16 -10z"/>
<path d="M1142 10586 c-18 -13 -36 -27 -40 -31 -10 -11 50 21 73 39 32 25 3
17 -33 -8z"/>
<path d="M1070 10540 c-9 -6 -10 -10 -3 -10 6 0 15 5 18 10 8 12 4 12 -15 0z"/>
<path d="M1196 10484 c-38 -19 -77 -45 -87 -58 -9 -12 -50 -39 -91 -60 -76
-40 -230 -137 -358 -227 -204 -143 -660 -496 -660 -511 0 -5 6 -6 12 -1 22 13
128 89 228 163 209 155 311 226 444 308 77 48 185 121 240 162 101 75 186 134
196 135 9 1 125 80 128 88 2 4 9 7 17 7 7 0 18 7 25 15 22 26 -19 17 -94 -21z"/>
<path d="M1670 10346 c-30 -11 -60 -24 -65 -27 -6 -4 -25 -10 -43 -14 -18 -4
-60 -18 -92 -31 -33 -13 -79 -25 -102 -25 -78 -3 -215 -79 -563 -314 -253
-170 -264 -178 -405 -303 -116 -103 -193 -157 -317 -223 -46 -24 -83 -47 -83
-51 0 -6 139 37 195 62 52 22 108 40 112 36 2 -2 -6 -14 -19 -26 -26 -25 -107
-64 -215 -105 -54 -20 -73 -32 -73 -45 0 -16 5 -17 37 -9 52 11 54 3 4 -17
-38 -15 -41 -19 -41 -56 0 -40 0 -40 32 -35 42 6 118 -28 118 -53 0 -38 69
-90 120 -90 44 0 57 -24 34 -65 l-18 -34 28 -60 c26 -53 28 -67 23 -125 -3
-37 -18 -94 -32 -129 -15 -34 -51 -135 -81 -225 -61 -184 -91 -247 -169 -350
l-55 -72 0 -220 0 -221 30 18 c140 82 470 411 573 571 16 24 31 42 34 39 6 -7
-56 -105 -111 -173 -68 -86 -376 -387 -454 -443 -47 -35 -72 -59 -72 -72 0
-23 0 -22 75 30 178 127 436 384 598 598 26 34 47 63 47 66 0 2 22 41 50 87
88 147 177 338 245 526 18 50 39 106 48 125 23 52 97 246 97 256 0 12 62 158
93 219 47 92 119 176 331 388 230 229 417 458 394 482 -18 18 -73 -23 -130
-97 -102 -135 -170 -212 -331 -379 -98 -101 -201 -213 -228 -250 -62 -82 -169
-296 -169 -337 0 -10 -4 -23 -8 -28 -5 -6 -17 -39 -26 -75 -18 -66 -61 -198
-75 -235 -27 -68 -224 -451 -283 -551 -80 -134 -76 -129 -83 -122 -3 3 12 36
33 74 159 282 224 441 302 739 25 96 84 246 116 297 13 21 24 40 24 43 0 9 73
119 122 185 27 36 145 162 261 280 229 232 333 368 372 484 l20 58 -28 22
c-38 30 -122 31 -197 2z m137 -26 c8 -12 9 -21 3 -25 -6 -4 -8 -11 -4 -16 12
-20 -76 -141 -121 -166 -15 -9 -25 -7 -46 8 -14 10 -29 16 -33 12 -3 -3 -6 0
-6 8 0 18 -75 23 -143 10 -64 -12 -73 3 -28 46 59 58 163 100 336 136 11 3 22
5 25 6 3 0 11 -8 17 -19z m-369 -286 c10 -3 10 -9 2 -24 -6 -11 -8 -20 -5 -20
4 0 -12 -18 -35 -40 -23 -22 -46 -40 -51 -40 -6 0 -7 -5 -4 -11 4 -6 0 -18 -9
-27 -9 -9 -41 -51 -72 -92 -30 -41 -58 -77 -62 -80 -4 -3 -34 -41 -67 -84 -33
-43 -106 -127 -162 -185 -137 -142 -143 -155 -159 -368 -21 -288 -73 -471
-180 -641 -67 -106 -83 -83 -30 43 13 32 22 63 19 68 -2 4 1 15 8 23 10 12 9
13 -5 8 -11 -4 -16 -1 -16 10 0 9 -7 16 -15 16 -9 0 -15 7 -13 16 5 29 -18 26
-33 -3 -25 -49 -74 -112 -84 -109 -13 4 -11 16 15 101 93 298 100 372 54 527
-35 120 -37 220 -5 294 29 68 196 230 306 298 44 28 82 52 85 55 3 4 30 23 60
43 31 21 65 45 76 55 34 31 112 83 123 83 6 0 11 5 11 11 0 7 10 9 28 5 19 -5
23 -4 12 3 -15 11 -14 11 75 42 22 8 46 20 53 27 12 11 37 10 80 -4z m-978
-1564 c0 -5 -4 -10 -10 -10 -5 0 -10 5 -10 10 0 6 5 10 10 10 6 0 10 -4 10
-10z"/>
<path d="M1085 10166 c-77 -40 -160 -85 -183 -100 -75 -47 -112 -66 -130 -66
-9 0 -28 -9 -42 -20 -14 -11 -30 -20 -36 -20 -6 0 -29 -12 -50 -27 -57 -38
-240 -133 -248 -128 -3 3 -4 2 -1 -2 3 -3 -4 -11 -14 -17 -11 -6 -81 -58 -157
-115 -76 -57 -158 -116 -181 -130 -40 -24 -54 -41 -35 -41 4 0 30 15 57 33
123 80 183 115 189 110 6 -7 77 38 118 76 15 13 31 21 35 17 4 -4 0 -12 -9
-17 -10 -5 -66 -48 -125 -95 -60 -46 -123 -96 -141 -110 -84 -65 30 -14 148
67 30 20 98 72 150 114 125 100 488 342 702 468 89 52 122 77 101 77 -4 0 -71
-33 -148 -74z"/>
<path d="M1730 9832 c-200 -199 -268 -272 -253 -272 5 0 22 12 39 28 17 15 50
44 75 65 99 87 197 186 293 299 98 117 35 67 -154 -120z"/>
<path d="M2158 9996 c-10 -7 -18 -18 -18 -25 0 -6 -7 -11 -15 -11 -8 0 -15 -6
-15 -13 0 -6 -13 -18 -30 -25 -16 -7 -31 -21 -34 -30 -3 -9 -19 -26 -35 -37
-16 -10 -29 -22 -28 -25 1 -3 -7 -18 -17 -33 -16 -24 -17 -30 -5 -38 8 -5 21
-9 30 -9 18 0 159 147 159 167 0 7 6 12 12 11 7 -2 14 7 16 20 2 12 11 22 20
22 15 1 15 2 -1 14 -14 11 -15 15 -5 19 9 4 9 6 -2 6 -8 0 -23 -6 -32 -13z"/>
<path d="M2380 9788 c0 -14 15 -16 27 -3 10 11 9 13 -7 12 -11 -1 -20 -5 -20
-9z"/>
<path d="M2320 9753 c-56 -54 -115 -103 -122 -103 -15 0 -78 -63 -78 -77 0 -7
-4 -13 -10 -13 -18 0 -10 -18 11 -23 12 -3 22 0 26 9 3 8 12 14 20 14 8 0 13
8 11 18 -2 12 7 20 29 27 21 6 32 15 30 24 -1 9 6 16 16 16 10 0 21 5 25 11 4
7 16 14 27 17 11 4 2 4 -20 1 l-40 -5 35 18 c19 9 38 22 42 28 5 6 8 4 8 -5 1
-12 3 -12 11 2 5 10 16 15 24 12 22 -9 19 29 -2 42 -14 8 -23 6 -43 -13z"/>
<path d="M2791 9715 c-1 -11 -4 -31 -7 -45 -5 -22 -4 -23 6 -7 6 10 9 30 7 45
-3 18 -5 20 -6 7z"/>
<path d="M16 9555 c-11 -8 -16 -15 -10 -15 5 0 18 7 28 15 11 8 16 15 10 15
-5 0 -18 -7 -28 -15z"/>
<path d="M2725 9559 c-4 -6 -5 -12 -2 -15 2 -3 7 2 10 11 7 17 1 20 -8 4z"/>
<path d="M2773 9535 c0 -22 2 -30 4 -17 2 12 2 30 0 40 -3 9 -5 -1 -4 -23z"/>
<path d="M2245 9480 c28 -12 45 -12 45 0 0 6 -15 10 -32 9 -28 0 -30 -2 -13
-9z"/>
<path d="M2760 9455 c0 -19 2 -35 4 -35 2 0 6 16 8 35 2 19 0 35 -4 35 -4 0
-8 -16 -8 -35z"/>
<path d="M2152 9446 c-24 -7 -40 -15 -36 -19 4 -4 -2 -7 -13 -7 -34 0 -67 -33
-59 -58 6 -18 15 -22 47 -22 22 0 47 4 57 9 9 5 32 16 50 23 17 7 32 19 32 25
0 7 5 13 11 13 19 0 3 24 -22 32 -23 7 -22 7 4 4 15 -2 27 1 27 5 0 12 -44 9
-98 -5z"/>
<path d="M2726 9429 c-20 -47 -66 -178 -141 -399 -108 -316 -161 -442 -176
-419 -8 10 -9 8 -4 -8 4 -16 -4 -41 -28 -81 -19 -33 -38 -69 -42 -81 -4 -13
-12 -20 -19 -18 -7 3 -18 -5 -26 -16 -12 -21 -12 -21 5 -7 17 14 17 14 2 -17
-9 -17 -27 -39 -39 -47 -12 -9 -18 -16 -13 -16 4 0 -1 -10 -13 -23 -12 -13
-19 -27 -15 -32 5 -4 3 -6 -3 -2 -5 3 -23 -14 -40 -37 -16 -24 -60 -87 -98
-140 -85 -121 -122 -197 -130 -267 -9 -72 2 -89 42 -61 32 23 117 125 177 212
21 30 53 76 71 101 36 50 42 64 22 54 -7 -4 -6 -1 2 7 71 62 237 335 312 513
44 104 103 289 119 368 14 75 58 441 53 446 -2 2 -10 -11 -18 -30z m-488
-1337 c-37 -51 -150 -192 -154 -192 -15 0 144 208 159 209 5 1 2 -7 -5 -17z"/>
<path d="M1645 9050 c-3 -5 -1 -10 4 -10 6 0 11 5 11 10 0 6 -2 10 -4 10 -3 0
-8 -4 -11 -10z"/>
<path d="M1595 9032 c-6 -5 -46 -24 -90 -42 -44 -19 -93 -43 -110 -54 -36 -24
-96 -79 -91 -83 1 -2 61 28 131 67 71 38 132 70 135 70 4 0 20 11 36 25 19 17
24 25 14 25 -9 0 -20 -4 -25 -8z"/>
<path d="M1576 8913 c-3 -4 -14 -8 -23 -9 -55 -8 -64 -14 -53 -34 8 -14 8 -20
0 -20 -7 0 -9 -8 -5 -20 3 -11 -1 -30 -11 -45 -28 -42 -9 -39 42 7 90 81 123
116 117 122 -9 8 -58 8 -67 -1z"/>
<path d="M1550 8725 c-21 -25 -2 -31 20 -7 15 16 17 22 7 22 -8 0 -20 -7 -27
-15z"/>
<path d="M2345 8599 c-14 -28 -24 -53 -22 -55 3 -3 19 25 55 99 2 4 1 7 -1 7
-3 0 -17 -23 -32 -51z"/>
<path d="M1520 8609 c0 -29 23 -55 40 -44 19 11 80 -4 80 -20 0 -20 16 -19 24
0 15 40 -27 78 -96 85 -47 5 -48 5 -48 -21z"/>
<path d="M2350 8519 c-12 -23 -20 -43 -17 -45 2 -2 12 13 23 33 10 21 24 41
29 45 6 5 5 8 -2 8 -7 0 -22 -18 -33 -41z"/>
<path d="M1457 8492 c-20 -22 -22 -43 -4 -39 8 1 11 -9 9 -30 -1 -22 -19 -54
-53 -95 -57 -71 -83 -117 -110 -197 -11 -30 -19 -55 -19 -55 0 -1 9 -2 21 -3
14 -1 19 3 15 13 -3 8 -1 14 4 14 6 0 10 6 10 13 0 22 51 108 98 166 53 65
106 147 116 177 14 45 -54 73 -87 36z"/>
<path d="M1076 8455 c-3 -8 -1 -15 4 -15 6 0 10 7 10 15 0 8 -2 15 -4 15 -2 0
-6 -7 -10 -15z"/>
<path d="M2310 8450 c0 -5 5 -10 10 -10 6 0 10 5 10 10 0 6 -4 10 -10 10 -5 0
-10 -4 -10 -10z"/>
<path d="M1561 8398 c-73 -73 -149 -190 -162 -249 -12 -57 -7 -177 10 -206 8
-14 11 -10 17 22 l7 40 12 -29 c19 -45 23 -19 12 71 -17 137 6 197 139 361 38
46 16 40 -35 -10z"/>
<path d="M1048 8388 c-10 -23 -16 -43 -14 -45 8 -8 37 49 34 67 -2 14 -8 8
-20 -22z"/>
<path d="M2192 8330 c-18 -29 -15 -38 4 -12 9 13 14 25 12 27 -2 2 -9 -5 -16
-15z"/>
<path d="M986 8266 c-20 -38 -42 -74 -49 -82 -7 -7 -23 -29 -37 -50 -53 -78
-489 -522 -605 -616 -80 -64 -255 -197 -282 -214 -10 -7 -15 -14 -12 -18 10
-10 200 134 369 280 135 117 463 453 535 550 64 84 127 192 122 207 -2 6 -20
-20 -41 -57z"/>
<path d="M2065 8160 c-97 -126 -185 -270 -184 -300 0 -8 9 4 19 27 22 49 95
159 198 297 40 54 72 100 70 102 -2 1 -49 -55 -103 -126z"/>
<path d="M5 8069 c-4 -6 -5 -12 -2 -15 2 -3 7 2 10 11 7 17 1 20 -8 4z"/>
<path d="M1096 8002 c-17 -33 -44 -44 -70 -30 -20 11 -147 3 -155 -10 -6 -10
-51 -27 -62 -24 -3 0 -19 -12 -34 -28 -40 -42 1 -36 56 8 9 7 29 14 45 15 26
2 29 -2 32 -28 2 -20 -6 -43 -21 -65 -12 -19 -46 -69 -74 -110 -65 -95 -170
-205 -251 -265 -35 -25 -125 -82 -200 -127 -75 -44 -149 -89 -164 -99 -15 -11
-31 -19 -35 -19 -4 0 -34 -16 -66 -36 -32 -20 -60 -34 -63 -31 -5 5 27 26 100
66 77 44 263 155 331 200 121 79 326 303 301 329 -8 7 -42 -18 -164 -117 -103
-83 -278 -219 -475 -367 -70 -53 -127 -101 -127 -105 0 -5 7 -9 16 -9 9 0 12
-5 8 -12 -4 -7 19 3 52 22 109 62 249 127 286 134 13 3 24 5 26 7 3 3 21 6 37
8 8 0 14 7 12 14 -1 6 4 11 12 9 24 -5 94 30 79 40 -8 5 -9 8 -2 8 6 0 42 21
80 46 38 25 89 55 113 67 24 11 71 47 104 79 32 32 62 58 64 58 3 0 12 8 20
18 12 16 13 15 11 -8 -2 -15 2 -25 10 -24 6 1 23 2 36 3 15 0 26 9 30 23 4 18
8 20 18 10 20 -20 25 -14 23 30 -3 53 11 103 34 126 10 9 21 26 25 38 12 39
79 49 101 15 3 -6 15 -11 26 -11 13 0 18 -4 13 -12 -4 -7 -4 -10 1 -6 11 10
12 76 3 115 -6 20 -17 35 -31 39 -12 4 -26 13 -32 20 -5 7 -22 16 -37 19 -22
6 -29 2 -42 -23z m-586 -637 c0 -2 -10 -9 -22 -15 -22 -11 -22 -10 -4 4 21 17
26 19 26 11z"/>
<path d="M5798 7793 c7 -3 16 -2 19 1 4 3 -2 6 -13 5 -11 0 -14 -3 -6 -6z"/>
<path d="M1240 7750 c0 -11 2 -20 4 -20 2 0 6 9 9 20 3 11 1 20 -4 20 -5 0 -9
-9 -9 -20z"/>
<path d="M1411 7504 c0 -11 3 -14 6 -6 3 7 2 16 -1 19 -3 4 -6 -2 -5 -13z"/>
<path d="M739 7400 c-13 -11 -29 -24 -34 -28 -77 -64 -144 -99 -319 -167 -140
-54 -200 -83 -301 -143 -72 -43 -80 -51 -83 -81 l-3 -33 29 21 c17 11 35 21
40 21 5 0 12 6 15 14 14 36 157 116 371 208 67 28 123 55 124 60 6 15 26 8 47
-17 22 -26 75 -45 75 -26 0 6 -7 11 -15 11 -8 0 -15 5 -15 10 0 13 11 12 33
-4 18 -14 23 -36 8 -36 -6 0 -21 -11 -35 -23 -46 -43 -204 -116 -361 -167 -55
-18 -111 -37 -125 -42 -49 -20 -171 -48 -181 -43 -5 4 -9 -10 -9 -30 0 -20 3
-35 8 -33 4 3 26 13 50 23 23 10 42 22 42 27 0 5 4 6 10 3 5 -3 22 1 37 9 34
18 164 66 179 66 17 0 204 84 329 147 61 31 129 66 152 77 27 13 43 28 43 40
0 15 -5 17 -26 12 -19 -5 -24 -4 -19 6 4 7 -2 2 -13 -11 -13 -16 -21 -20 -26
-12 -4 6 -15 11 -25 11 -13 0 -20 10 -25 31 -5 26 -1 35 20 51 14 11 23 26 20
34 -3 7 0 15 7 17 7 2 9 7 6 11 -3 3 -17 -3 -30 -14z m-29 -110 c0 -5 -4 -10
-10 -10 -5 0 -10 5 -10 10 0 6 5 10 10 10 6 0 10 -4 10 -10z m-50 -8 c0 -14
-11 -21 -26 -15 -21 8 -17 23 6 23 11 0 20 -4 20 -8z"/>
<path d="M1190 7229 c-129 -62 -252 -114 -435 -184 -202 -77 -338 -136 -445
-195 -156 -84 -146 -90 21 -12 47 22 157 67 245 100 195 74 446 183 591 256
181 91 200 119 23 35z"/>
<path d="M2698 6913 c-10 -2 -18 -8 -18 -13 0 -5 -24 -20 -52 -34 -29 -14 -75
-38 -103 -55 -86 -51 -106 -60 -121 -54 -7 3 -14 0 -14 -7 0 -6 5 -8 10 -5 6
3 10 3 10 0 0 -3 -21 -16 -47 -27 -27 -11 -50 -24 -53 -27 -3 -3 -31 -24 -64
-46 -56 -39 -196 -170 -196 -186 0 -4 7 -9 15 -13 8 -3 14 -2 13 2 -2 4 31 39
72 77 83 78 205 162 319 219 71 36 180 106 212 136 9 8 24 20 35 27 19 12 13
14 -18 6z"/>
<path d="M2746 6875 c-8 -8 -17 -15 -20 -15 -11 0 -56 -44 -56 -54 0 -5 10 0
23 12 13 12 27 22 31 22 5 0 21 11 38 25 19 16 24 25 14 25 -8 0 -21 -7 -30
-15z"/>
<path d="M2586 6765 c-11 -8 -15 -15 -10 -15 6 0 19 7 30 15 10 8 15 14 9 14
-5 0 -19 -6 -29 -14z"/>
<path d="M5979 6753 c-13 -16 -12 -17 4 -4 9 7 17 15 17 17 0 8 -8 3 -21 -13z"/>
<path d="M1598 6742 c-1 -4 -15 -16 -29 -27 -55 -43 -181 -187 -280 -321 -187
-252 -353 -520 -484 -780 -71 -143 -133 -261 -136 -264 -3 -3 -9 -12 -12 -20
-4 -8 -22 -42 -41 -75 -90 -157 -249 -498 -302 -649 -83 -235 -135 -513 -111
-596 7 -23 17 -41 22 -41 13 0 37 83 69 235 36 171 115 417 181 561 7 17 61
152 120 300 145 369 159 402 210 508 53 109 97 186 139 245 17 23 78 110 136
193 233 334 338 480 428 594 52 66 99 126 105 133 6 8 6 12 -1 12 -6 0 -12 -3
-14 -8z"/>
<path d="M2456 6700 c-72 -31 -114 -59 -66 -45 14 4 37 9 53 12 15 3 27 9 27
14 0 5 9 9 19 9 11 0 23 5 26 11 4 6 17 14 29 19 20 8 20 9 1 9 -11 0 -51 -13
-89 -29z"/>
<path d="M5955 6709 c-4 -6 -5 -12 -2 -15 2 -3 7 2 10 11 7 17 1 20 -8 4z"/>
<path d="M5875 6590 c-3 -5 -1 -10 4 -10 6 0 11 5 11 10 0 6 -2 10 -4 10 -3 0
-8 -4 -11 -10z"/>
<path d="M5855 6559 c-4 -6 -5 -12 -2 -15 2 -3 7 2 10 11 7 17 1 20 -8 4z"/>
<path d="M1387 6247 c-15 -17 -27 -37 -27 -43 0 -7 -7 -14 -15 -18 -8 -3 -15
-11 -15 -17 0 -7 -17 -35 -38 -63 -21 -28 -41 -58 -45 -66 -4 -8 -18 -33 -32
-55 -14 -22 -33 -55 -42 -72 -9 -18 -20 -33 -25 -33 -4 0 -8 -7 -8 -15 0 -8
-5 -15 -10 -15 -6 0 -9 -3 -9 -7 1 -5 1 -17 0 -28 -1 -13 -4 -16 -9 -8 -5 8
-16 2 -35 -22 -15 -19 -27 -37 -27 -40 0 -3 -8 -15 -18 -25 -10 -11 -28 -40
-41 -65 -12 -24 -26 -47 -31 -50 -5 -3 -7 -12 -3 -20 3 -8 1 -15 -5 -15 -6 0
-13 -13 -17 -30 -4 -16 -10 -30 -14 -30 -6 0 -41 -106 -41 -126 0 -3 14 8 30
25 17 17 29 32 28 33 -2 2 7 17 20 33 22 27 22 30 5 36 -15 5 -14 7 7 10 15 3
26 12 29 24 2 11 9 24 17 28 8 4 14 13 14 18 0 6 11 25 25 43 14 18 25 40 25
49 0 10 4 17 8 17 4 0 13 15 20 33 7 18 27 51 45 73 19 21 42 55 53 74 10 19
31 48 46 65 26 28 29 34 27 51 0 4 3 10 8 13 22 14 140 257 130 267 -2 2 -15
-11 -30 -29z"/>
<path d="M2760 5900 c0 -22 34 -44 56 -36 20 8 8 26 -18 26 -14 0 -18 5 -14
15 3 9 0 15 -9 15 -8 0 -15 -9 -15 -20z"/>
<path d="M2880 5839 c0 -6 -9 -8 -21 -4 l-22 7 22 -23 c11 -12 21 -26 21 -30
0 -4 10 -9 22 -12 12 -4 19 -9 15 -13 -4 -4 -2 -13 4 -20 13 -16 20 -84 9 -84
-9 0 -8 -40 2 -55 3 -6 4 -25 2 -42 -2 -22 1 -33 9 -33 7 0 8 -3 2 -8 -16 -12
-17 -52 0 -52 8 0 12 -6 9 -14 -3 -7 1 -20 10 -28 8 -8 17 -36 21 -61 4 -26
12 -47 19 -47 6 0 12 -17 12 -41 1 -23 7 -45 14 -49 9 -6 9 -9 1 -15 -9 -5 -9
-10 -1 -20 7 -8 9 -23 5 -34 -3 -10 -1 -22 5 -26 5 -3 10 -11 10 -16 0 -6 -5
-7 -11 -4 -7 5 -8 -5 -4 -29 5 -24 3 -36 -4 -36 -6 0 -10 -4 -8 -8 4 -14 -38
-92 -48 -88 -5 2 -23 -4 -40 -14 -52 -30 -296 -64 -497 -69 -16 -1 -28 -5 -28
-9 0 -11 60 -32 91 -32 13 0 33 -6 44 -13 37 -25 150 -65 240 -86 255 -59 318
-72 357 -77 24 -3 60 -8 81 -11 21 -3 58 -2 82 1 39 6 45 11 56 43 17 53 5
163 -31 268 -17 50 -34 104 -39 120 -5 17 -16 44 -25 60 -9 17 -16 38 -16 48
0 9 -5 17 -11 17 -5 0 -8 4 -5 8 3 5 -10 40 -29 77 -18 38 -31 73 -29 77 3 5
-2 11 -10 14 -9 3 -16 13 -16 22 0 8 -7 24 -17 34 -9 10 -18 33 -20 50 -2 18
-7 34 -11 37 -20 15 -40 61 -38 85 2 16 -2 26 -9 26 -17 0 -27 28 -12 33 7 2
0 10 -15 17 -16 7 -28 18 -28 23 0 6 -10 21 -22 34 -19 20 -19 23 -4 23 9 0
14 5 11 10 -3 6 -14 10 -23 10 -10 0 -25 9 -35 20 -9 11 -23 17 -32 14 -8 -4
-15 -1 -15 5 0 6 5 11 10 11 6 0 10 5 10 10 0 6 -4 10 -10 10 -5 0 -10 -5 -10
-11z"/>
<path d="M2330 5690 c0 -5 5 -10 10 -10 6 0 10 5 10 10 0 6 -4 10 -10 10 -5 0
-10 -4 -10 -10z"/>
<path d="M1527 5423 c-4 -3 -7 -13 -7 -22 1 -13 3 -13 11 2 11 19 8 33 -4 20z"/>
<path d="M1486 5348 c-9 -12 -13 -24 -9 -27 3 -3 8 0 10 7 3 7 11 19 20 27 8
8 10 15 4 15 -5 0 -17 -10 -25 -22z"/>
<path d="M951 4814 c0 -11 3 -14 6 -6 3 7 2 16 -1 19 -3 4 -6 -2 -5 -13z"/>
<path d="M2966 4625 c-4 -12 3 -15 34 -15 22 0 40 -4 40 -9 0 -12 113 -31 124
-21 5 5 -4 11 -20 15 -16 3 -48 10 -72 15 -23 6 -51 10 -63 10 -11 0 -17 5
-14 10 3 6 0 10 -8 10 -8 0 -17 -7 -21 -15z"/>
<path d="M4163 4318 c-17 -18 -61 -78 -98 -133 -37 -55 -89 -126 -117 -157
-27 -31 -59 -70 -71 -85 -11 -15 -38 -47 -60 -71 -32 -36 -64 -91 -73 -124 -1
-5 -2 -9 -4 -10 -6 -9 -3 -139 4 -141 17 -6 116 107 116 132 0 6 3 11 8 11 4
0 12 12 19 26 11 23 10 24 -10 18 -21 -7 -21 -6 3 21 14 15 60 64 102 109 43
45 98 109 122 144 53 75 124 234 107 240 -6 2 -8 14 -5 28 8 33 -6 30 -43 -8z
m-113 -246 c0 -15 -59 -92 -70 -92 -16 0 -12 18 13 53 30 43 57 61 57 39z"/>
<path d="M817 4143 c-4 -3 -7 -13 -7 -22 1 -13 3 -13 11 2 11 19 8 33 -4 20z"/>
<path d="M2722 3655 c0 -16 2 -22 5 -12 2 9 2 23 0 30 -3 6 -5 -1 -5 -18z"/>
<path d="M366 3614 c-8 -20 -8 -24 2 -24 4 0 8 9 9 20 2 24 -3 26 -11 4z"/>
<path d="M3710 3570 c0 -5 5 -10 10 -10 6 0 10 5 10 10 0 6 -4 10 -10 10 -5 0
-10 -4 -10 -10z"/>
<path d="M4815 3466 c-93 -94 -138 -154 -188 -251 -82 -163 -90 -345 -15 -345
10 0 18 -4 18 -8 0 -5 33 -5 73 0 39 4 93 6 119 4 26 -3 50 0 53 5 4 5 22 9
41 9 21 0 37 6 40 15 3 8 23 19 45 25 21 6 52 23 69 39 29 26 31 32 29 90 -2
53 -4 61 -18 55 -51 -22 -129 -34 -232 -36 -113 -3 -118 -2 -138 21 -30 34
-30 65 -3 146 29 87 113 211 194 286 15 14 28 29 28 32 0 21 -31 -3 -115 -87z"/>
<path d="M5042 3528 c-63 -29 -173 -141 -208 -213 -29 -61 -41 -129 -24 -140
5 -3 6 -13 3 -22 -5 -12 -2 -15 9 -11 9 4 20 2 26 -4 8 -8 15 -8 24 -1 7 6 24
14 38 18 14 4 34 17 45 29 11 12 29 28 40 36 26 20 99 108 126 154 27 47 29
128 4 156 -22 24 -28 24 -83 -2z"/>
<path d="M1115 3260 c-11 -4 -33 -5 -50 -3 -28 5 -29 4 -14 -12 19 -20 69 -14
90 11 13 15 5 17 -26 4z"/>
<path d="M6505 3076 c-50 -35 -244 -128 -335 -161 -55 -21 -99 -40 -96 -42 9
-9 212 59 276 93 69 37 198 124 183 124 -5 0 -17 -6 -28 -14z"/>
<path d="M1073 2918 c-94 -113 -212 -229 -256 -253 -36 -19 -39 -19 -67 -3
l-29 16 -12 -54 c-22 -99 18 -96 136 11 33 30 72 65 86 77 36 32 189 223 189
237 0 6 3 11 8 11 4 0 13 9 20 20 7 11 8 20 3 20 -6 0 -40 -37 -78 -82z"/>
<path d="M4880 2849 c0 -5 -4 -8 -9 -4 -6 3 -15 -3 -20 -14 -6 -11 -20 -23
-31 -26 -11 -4 -17 -11 -14 -17 4 -7 2 -8 -5 -4 -6 4 -17 1 -25 -6 -8 -7 -28
-24 -45 -38 -17 -14 -31 -30 -31 -37 0 -6 -4 -13 -9 -15 -6 -1 -11 -15 -13
-30 -2 -15 -7 -30 -10 -34 -4 -3 2 -21 13 -40 10 -19 16 -34 13 -34 -3 0 8
-13 24 -30 17 -16 35 -30 42 -30 6 0 13 -6 16 -14 3 -8 17 -19 32 -24 15 -6
57 -22 93 -36 124 -48 240 -68 441 -75 102 -3 184 -3 182 1 -2 4 0 9 5 13 14
8 4 47 -14 57 -8 5 -15 15 -15 22 0 24 -273 280 -345 323 -71 43 -134 75 -158
80 -15 3 -30 10 -33 14 -8 13 -84 11 -84 -2z"/>
<path d="M3975 2696 c-16 -11 -48 -37 -70 -58 -168 -154 -171 -156 -231 -203
-21 -16 -54 -44 -74 -60 -66 -58 -235 -180 -315 -229 -137 -84 -365 -238 -365
-247 0 -5 22 7 50 26 27 19 52 35 55 35 2 0 44 24 92 53 48 29 121 71 161 92
39 22 72 43 72 47 0 4 8 8 19 8 20 0 45 23 35 32 -5 6 48 48 60 48 3 0 51 30
106 66 119 77 255 190 325 269 28 31 65 72 83 91 41 41 39 60 -3 30z"/>
<path d="M1505 2493 c-47 -59 -124 -164 -172 -233 -85 -123 -157 -201 -405
-435 -108 -102 -135 -149 -145 -248 -8 -90 20 -209 59 -249 15 -16 28 -34 29
-41 0 -7 2 -38 3 -70 l2 -57 -37 0 -38 0 4 -49 c6 -80 16 -119 35 -136 17 -16
21 -15 53 17 19 18 44 58 56 88 21 54 28 80 77 270 13 52 29 106 35 120 11 25
11 25 -11 5 -12 -11 -34 -60 -53 -122 -38 -127 -58 -118 -26 12 30 119 75 203
220 405 68 96 158 227 199 290 86 133 190 332 190 365 0 12 3 25 7 29 15 14
26 133 13 141 -5 3 -48 -43 -95 -102z"/>
<path d="M6184 2335 c-10 -8 -14 -14 -9 -14 6 0 19 6 29 14 11 8 15 15 10 15
-6 0 -19 -7 -30 -15z"/>
<path d="M5563 2307 c-3 -5 0 -12 6 -16 13 -9 -4 -106 -20 -117 -5 -3 -9 -14
-9 -25 0 -11 -9 -38 -19 -59 -26 -53 -11 -51 30 5 19 25 41 54 50 65 23 28 44
129 29 144 -13 13 -59 16 -67 3z"/>
<path d="M4798 2278 c-14 -11 -12 -14 20 -25 20 -7 93 -18 162 -23 246 -20
300 -34 339 -88 17 -24 19 -35 11 -62 -10 -36 -50 -100 -62 -100 -5 0 -8 -4
-8 -10 0 -18 70 32 104 74 65 80 73 125 31 174 -50 59 -85 66 -345 69 -165 1
-240 -1 -252 -9z"/>
<path d="M6064 2274 c-18 -14 -18 -14 6 -3 31 14 36 19 24 19 -6 0 -19 -7 -30
-16z"/>
<path d="M4951 2086 c-10 -12 -6 -18 24 -32 20 -9 41 -25 48 -35 7 -9 26 -21
42 -25 17 -4 27 -3 23 1 -4 4 5 17 20 30 23 20 24 25 13 39 -7 9 -10 16 -5 16
5 0 2 5 -6 10 -24 16 -146 12 -159 -4z"/>
<path d="M1113 1488 c-35 -60 -61 -131 -114 -308 -63 -212 -65 -220 -50 -220
19 0 46 71 96 250 25 91 57 196 72 233 28 75 26 96 -4 45z"/>
<path d="M6560 598 c3 -51 5 -207 5 -345 l0 -253 40 0 40 0 1 43 c9 345 8 369
-21 487 -15 63 -33 120 -41 126 -8 6 -14 16 -14 23 0 6 -3 11 -7 11 -5 0 -6
-42 -3 -92z"/>
<path d="M5550 664 c0 -8 5 -12 10 -9 6 3 10 10 10 16 0 5 -4 9 -10 9 -5 0
-10 -7 -10 -16z"/>
<path d="M5510 625 c0 -8 -4 -15 -8 -15 -5 0 -17 -18 -28 -40 -10 -22 -22 -40
-26 -40 -5 0 -8 -8 -8 -17 0 -9 -8 -35 -19 -57 -55 -121 -122 -294 -151 -393
l-19 -63 93 0 93 0 22 108 c11 59 28 147 37 197 17 99 18 103 27 125 6 15 16
66 21 105 1 11 5 27 8 35 15 37 15 59 1 64 -26 10 -43 6 -43 -9z"/>
<path d="M4825 590 c-3 -6 1 -7 9 -4 18 7 21 14 7 14 -6 0 -13 -4 -16 -10z"/>
<path d="M4725 541 c-27 -14 -88 -44 -135 -65 -47 -22 -122 -59 -167 -83 -45
-24 -84 -43 -85 -41 -2 1 -14 -5 -28 -15 -13 -9 -32 -17 -42 -17 -28 0 -168
-73 -161 -84 4 -5 -1 -7 -10 -3 -9 3 -22 0 -29 -7 -7 -7 -19 -11 -26 -8 -6 2
-12 -1 -12 -7 0 -21 21 -21 62 0 79 39 24 2 -67 -47 -49 -26 -107 -58 -127
-71 -21 -12 -40 -23 -42 -23 -3 0 -28 -15 -57 -32 l-52 -33 132 -3 c150 -3
122 -14 291 116 117 91 293 236 338 279 19 18 90 62 158 99 68 36 124 67 124
70 0 8 -15 2 -65 -25z m-560 -301 c-3 -5 -12 -10 -18 -10 -7 0 -6 4 3 10 19
12 23 12 15 0z"/>
<path d="M4505 470 c-3 -6 1 -7 9 -4 18 7 21 14 7 14 -6 0 -13 -4 -16 -10z"/>
<path d="M4346 435 c-11 -8 -16 -15 -10 -15 5 0 18 7 28 15 11 8 16 15 10 15
-5 0 -18 -7 -28 -15z"/>
<path d="M4430 440 c-8 -5 -10 -10 -5 -10 6 0 17 5 25 10 8 5 11 10 5 10 -5 0
-17 -5 -25 -10z"/>
<path d="M4390 420 c-9 -6 -10 -10 -3 -10 6 0 15 5 18 10 8 12 4 12 -15 0z"/>
<path d="M4260 384 c-25 -15 -83 -47 -130 -72 -147 -78 -123 -75 55 8 168 78
171 80 140 74 -23 -4 -26 -3 -15 5 30 21 -6 10 -50 -15z m40 2 c0 -2 -7 -7
-16 -10 -8 -3 -12 -2 -9 4 6 10 25 14 25 6z"/>
<path d="M3987 174 c-16 -9 -27 -18 -24 -21 3 -2 22 5 44 16 21 11 31 20 23
20 -8 0 -28 -7 -43 -15z"/>
<path d="M3902 136 c7 -7 19 -11 27 -8 11 4 10 7 -5 13 -29 12 -36 10 -22 -5z"/>
<path d="M5011 100 c-1 -8 -13 -26 -26 -39 -14 -13 -25 -29 -25 -36 0 -7 -6
-16 -12 -18 -7 -3 1 -6 17 -6 28 -1 32 3 44 44 7 24 11 50 8 57 -4 9 -6 9 -6
-2z"/>
<path d="M3725 30 c-3 -5 -2 -10 4 -10 5 0 13 5 16 10 3 6 2 10 -4 10 -5 0
-13 -4 -16 -10z"/>
</g>
</svg>
