<?xml version="1.0" standalone="no"?>
<!DOCTYPE svg PUBLIC "-//W3C//DTD SVG 20010904//EN"
 "http://www.w3.org/TR/2001/REC-SVG-20010904/DTD/svg10.dtd">
<svg version="1.0" xmlns="http://www.w3.org/2000/svg"
 width="736.000000pt" height="1041.000000pt" viewBox="0 0 736.000000 1041.000000"
 preserveAspectRatio="xMidYMid meet">

<g transform="translate(0.000000,1041.000000) scale(0.100000,-0.100000)"
fill="#000000" stroke="none">
<path d="M5371 8303 c-1 -84 1 -94 23 -120 l24 -28 -10 50 c-6 28 -16 82 -23
120 l-12 70 -2 -92z"/>
<path d="M5411 8134 c0 -11 3 -14 6 -6 3 7 2 16 -1 19 -3 4 -6 -2 -5 -13z"/>
<path d="M5388 8107 c-5 -10 -8 -36 -8 -57 0 -21 -4 -42 -10 -45 -6 -4 -10 8
-11 27 0 24 -5 14 -19 -40 -38 -145 -76 -181 -243 -232 -115 -36 -99 -39 20
-5 100 29 157 64 192 118 28 42 45 40 29 -3 -15 -44 -89 -104 -159 -130 -69
-26 -196 -42 -220 -27 -10 6 -26 6 -45 0 -24 -8 -7 -13 111 -27 171 -22 220
-36 273 -82 61 -52 106 -189 114 -348 l3 -68 -34 -19 c-19 -10 -37 -22 -40
-27 -3 -5 -49 -42 -101 -82 -89 -69 -409 -328 -420 -340 -3 -3 -24 -21 -48
-39 -24 -18 -41 -35 -39 -38 7 -7 79 38 117 72 40 36 240 191 405 313 61 45
118 89 127 98 24 23 48 11 48 -26 0 -16 5 -30 10 -30 6 0 10 16 10 37 l0 36
115 -6 c64 -4 128 -12 143 -19 14 -7 37 -31 49 -53 34 -60 74 -191 80 -268 3
-37 9 -70 13 -72 4 -2 10 44 14 103 9 136 29 210 72 260 44 52 86 70 219 98
89 18 102 22 65 23 -88 2 -250 31 -290 51 -44 22 -76 73 -85 137 -6 38 -5 38
57 79 173 113 237 154 241 154 3 0 34 18 69 39 67 41 234 120 307 146 88 31
171 9 171 -45 0 -36 -52 -163 -103 -249 -85 -144 -282 -409 -455 -611 -36 -41
-74 -86 -86 -100 -50 -60 -152 -176 -162 -185 -6 -5 -51 -55 -100 -110 -49
-55 -121 -134 -160 -175 -39 -41 -142 -150 -228 -242 -87 -93 -161 -168 -164
-168 -14 0 -128 133 -184 214 -4 6 -10 7 -14 4 -3 -4 3 -22 15 -41 61 -99 -24
-11 -121 126 -82 113 -179 288 -255 457 -57 127 -80 185 -184 470 -100 275
-160 412 -237 544 -22 37 -39 73 -36 80 6 15 -50 82 -99 117 -22 16 -37 29
-32 29 19 0 -24 34 -93 72 -70 39 -81 41 -172 46 -93 4 -99 3 -179 -31 -81
-35 -160 -90 -191 -132 -31 -42 -107 -172 -132 -225 -57 -122 -76 -300 -34
-308 40 -8 230 228 310 386 43 84 115 137 176 129 22 -3 43 -1 46 5 3 5 12 7
19 4 8 -3 17 4 21 16 6 19 12 20 74 16 189 -14 343 -215 508 -663 173 -468
216 -575 306 -754 106 -211 217 -380 359 -544 l78 -89 -104 -107 c-57 -58
-139 -143 -183 -188 -43 -46 -82 -83 -87 -83 -9 0 -83 77 -105 110 -9 14 -29
39 -44 55 -14 17 -39 48 -54 70 -92 133 -134 196 -162 247 -103 180 -262 498
-262 523 0 10 -5 13 -12 9 -6 -4 -8 -3 -5 4 4 5 1 23 -7 39 -23 44 -46 100
-46 111 0 5 -12 36 -26 68 -15 33 -35 86 -45 119 -36 120 -88 262 -133 362
-25 56 -50 131 -56 165 -5 35 -19 105 -30 156 -19 86 -26 147 -29 262 -2 61
-15 36 -35 -65 -23 -116 -44 -398 -56 -735 -5 -162 -17 -425 -26 -585 -16
-292 -14 -620 3 -740 5 -33 21 -94 35 -135 15 -41 34 -102 43 -135 9 -33 45
-111 81 -173 35 -62 64 -115 64 -118 0 -23 186 -224 208 -224 6 0 12 -4 12 -8
0 -9 -156 -162 -230 -226 -25 -22 -81 -72 -125 -111 -74 -67 -166 -146 -238
-204 l-29 -24 -57 60 c-62 67 -111 98 -216 138 -38 14 -86 33 -105 40 -58 24
-190 62 -285 83 -148 33 -186 41 -270 52 -44 6 -98 16 -120 22 -22 7 -46 10
-53 9 -16 -3 -72 21 -72 31 0 4 33 6 73 4 39 -1 78 2 85 8 10 7 17 5 23 -7 10
-17 35 -22 63 -11 17 7 22 34 6 34 -5 0 -10 -4 -10 -10 0 -5 -4 -10 -10 -10
-5 0 -9 5 -7 11 4 21 -127 53 -225 53 -27 1 -48 4 -48 8 0 5 3 8 8 8 15 1 39
26 46 48 6 18 4 22 -13 22 -31 0 -25 27 9 45 17 9 30 19 30 23 0 5 8 17 17 28
24 27 52 81 46 87 -8 8 -60 -17 -95 -46 -37 -31 -124 -77 -145 -77 -7 0 -47
-16 -89 -35 -41 -19 -79 -35 -82 -35 -4 0 -24 -17 -46 -36 -29 -28 -38 -44
-39 -71 l-1 -35 -51 7 c-95 14 -105 13 -150 -17 -53 -35 -98 -85 -126 -140
-38 -75 -2 -197 73 -244 53 -34 128 -73 188 -98 148 -62 303 -133 356 -162 33
-19 66 -34 73 -34 7 0 44 -20 82 -45 38 -24 88 -54 111 -66 24 -12 52 -30 63
-40 52 -49 82 -69 98 -69 10 0 15 -4 12 -10 -3 -6 1 -7 9 -4 11 4 16 0 16 -10
0 -9 5 -16 11 -16 7 0 31 -21 55 -47 l43 -48 -30 -27 c-17 -16 -35 -28 -42
-28 -6 0 -27 15 -46 33 l-34 32 28 -38 c32 -43 29 -56 -19 -91 l-28 -21 -32
40 c-59 76 -221 237 -301 300 -150 118 -355 231 -598 329 -578 235 -565 230
-603 216 -33 -13 -21 -38 16 -32 16 2 46 -1 67 -8 43 -14 343 -126 388 -145
17 -7 62 -25 100 -40 188 -73 395 -185 545 -294 140 -101 360 -347 360 -402 0
-14 -87 -79 -106 -79 -6 0 -19 9 -29 20 -10 11 -20 18 -22 16 -3 -2 5 -14 16
-25 26 -26 27 -40 4 -48 -10 -4 -21 -12 -25 -18 -4 -6 -49 -43 -100 -81 -51
-39 -128 -97 -172 -130 -560 -422 -942 -644 -1106 -644 -95 0 -104 58 -30 209
79 160 374 561 614 836 154 175 206 237 206 245 0 6 -23 20 -35 20 -4 0 -268
-310 -366 -430 -325 -399 -530 -719 -570 -890 -18 -77 -14 -101 21 -132 25
-23 39 -28 84 -28 139 0 441 144 764 365 57 38 134 90 171 115 222 151 399
279 555 403 l98 78 25 -23 c70 -64 221 -254 315 -395 185 -278 246 -417 348
-799 54 -203 104 -360 121 -384 9 -12 10 -11 4 5 -15 44 -68 264 -85 355 -57
305 -87 399 -177 565 -97 178 -340 501 -472 630 -28 27 -51 55 -51 61 0 7 15
21 34 32 34 20 35 20 72 1 47 -23 57 -15 42 34 -11 36 -10 39 21 70 32 31 32
32 47 12 21 -27 60 -113 95 -210 16 -44 34 -89 38 -100 5 -11 14 -39 19 -62 8
-34 6 -45 -7 -59 -15 -16 -15 -16 1 -11 12 4 15 2 12 -8 -3 -7 4 -18 15 -24
29 -16 39 9 35 89 -7 114 -65 279 -135 379 -29 41 -36 58 -27 68 6 7 16 13 23
13 7 0 15 7 19 15 3 8 13 15 22 15 9 0 35 16 58 35 22 19 48 41 56 47 9 7 64
55 122 107 59 51 120 101 135 111 16 9 57 46 90 80 34 35 71 64 83 65 11 1 19
-2 17 -8 -1 -5 13 -25 31 -45 19 -20 39 -48 44 -64 5 -15 18 -30 29 -33 10 -4
28 -26 39 -51 11 -24 27 -44 35 -44 8 0 20 -10 26 -22 11 -21 39 -54 80 -97
55 -56 115 -167 149 -276 12 -38 26 -80 31 -93 5 -13 9 -35 9 -50 0 -15 4 -33
9 -41 11 -16 21 55 25 161 2 78 16 105 16 31 0 -27 3 -53 7 -56 21 -22 22
-335 1 -607 -10 -124 -22 -310 -28 -415 -6 -104 -13 -217 -16 -250 -4 -33 -4
-58 -1 -55 3 3 13 86 21 185 9 99 21 234 27 300 36 411 90 675 181 874 46 102
303 453 420 573 31 32 63 73 72 92 32 68 19 92 -71 134 -57 26 -93 34 -221 48
-118 13 -165 14 -200 6 -47 -10 -176 -2 -217 14 -11 4 -36 19 -55 34 -35 27
-97 44 -102 28 -2 -5 -18 -10 -35 -12 -40 -5 -53 -13 -53 -32 0 -8 -4 -13 -8
-11 -5 1 -20 -11 -33 -27 -15 -16 -32 -27 -43 -25 -17 4 -17 5 2 27 11 12 23
22 27 22 4 0 35 30 68 66 61 66 200 192 394 357 120 101 111 101 204 8 53 -53
106 -85 234 -142 118 -52 193 -81 230 -89 63 -13 168 -40 190 -49 11 -5 34
-14 51 -21 45 -17 52 -67 18 -126 -14 -23 -123 -138 -242 -256 -307 -300 -322
-318 -491 -571 -140 -208 -196 -343 -246 -590 -32 -158 -39 -212 -69 -512 -33
-318 -56 -480 -69 -463 -5 8 -6 3 -3 -15 11 -50 -71 -277 -100 -277 -7 0 -21
-13 -31 -30 -30 -51 -95 -31 -164 50 -37 44 -83 80 -103 80 -15 0 -36 -36 -36
-63 0 -93 151 -217 264 -217 36 0 58 -6 76 -21 l25 -20 -77 3 c-85 4 -83 -3 5
-23 63 -14 107 -7 208 30 50 19 146 87 136 98 -2 2 -44 -13 -93 -33 -49 -19
-96 -38 -104 -41 -8 -3 4 14 27 38 39 42 100 143 152 254 125 263 140 302 246
609 151 437 238 635 376 856 296 473 641 750 1214 976 157 61 219 93 340 172
125 82 212 152 293 236 34 37 68 66 74 66 6 0 20 -7 30 -16 21 -20 40 -8 62
35 40 79 25 169 -44 275 -27 41 -47 76 -44 78 2 3 -25 31 -60 64 -79 73 -93
84 -106 84 -5 0 -10 6 -10 13 -1 26 -206 150 -460 277 -164 82 -262 138 -388
222 -56 38 -108 66 -114 62 -7 -5 -8 -3 -3 6 6 10 3 12 -13 8 -13 -4 -20 -2
-16 3 3 6 -9 23 -28 39 -34 30 -55 39 -42 18 4 -7 3 -8 -5 -4 -6 4 -9 11 -7
14 2 4 -4 18 -13 31 -20 26 -43 24 -80 -8 l-21 -19 58 -53 c80 -74 245 -199
340 -258 96 -60 282 -154 417 -211 342 -144 542 -281 609 -416 25 -50 35 -124
17 -124 -5 0 -35 14 -66 30 -60 32 -106 38 -122 18 -6 -7 -15 -47 -22 -88 -24
-153 -87 -236 -276 -362 -122 -82 -211 -128 -336 -173 -39 -14 -91 -34 -117
-46 -493 -220 -792 -466 -1095 -901 -165 -236 -314 -578 -448 -1028 -76 -252
-211 -580 -240 -580 -15 0 -7 36 29 140 16 47 62 200 101 340 201 715 353
1042 644 1385 267 314 567 517 1086 735 230 96 319 150 425 259 54 55 67 97
55 180 -4 34 -14 50 -40 72 -62 52 -209 118 -334 150 -148 38 -366 111 -461
154 -66 30 -272 145 -298 166 -6 5 -36 26 -66 46 -30 20 -56 40 -58 45 -2 4
-8 8 -13 8 -8 0 -72 49 -148 112 l-23 20 -42 -39 c-83 -79 -177 -156 -183
-150 -3 4 124 134 282 291 223 221 286 288 281 302 -6 20 16 46 193 229 169
176 387 408 445 477 52 60 82 85 93 74 4 -4 -41 -57 -147 -171 -41 -44 -120
-130 -175 -190 -55 -60 -130 -141 -167 -179 -38 -38 -68 -73 -68 -78 0 -5 -11
-13 -24 -19 -21 -10 -55 -59 -40 -59 6 0 30 19 53 44 10 10 25 25 32 33 39 40
144 133 151 133 4 0 8 4 8 10 0 5 28 38 63 72 34 35 105 110 157 167 52 58
110 121 129 140 56 59 320 369 411 481 47 58 90 110 96 115 6 6 19 23 29 39
10 17 44 62 75 100 78 98 174 241 245 366 91 159 115 222 115 301 0 50 -11 65
-70 92 -111 50 -463 -110 -910 -415 -46 -32 -88 -58 -92 -58 -4 0 -8 26 -9 58
0 64 -17 46 -18 -21 -1 -21 -5 -46 -11 -56 -12 -23 -329 -255 -337 -247 -8 8
17 221 34 286 16 65 56 126 98 152 48 29 148 57 289 79 197 30 191 36 -55 49
-101 5 -202 15 -224 21 -86 24 -132 85 -156 207 -16 86 -24 70 -9 -20 14 -86
47 -148 94 -177 40 -25 142 -40 276 -41 126 0 149 -15 39 -25 -269 -24 -386
-31 -401 -23 -25 12 -29 34 -36 219 -4 90 -10 156 -14 146z m-1359 -161 c-2
-2 -31 -6 -64 -9 -36 -3 -52 -2 -40 3 19 8 113 14 104 6z m-533 -247 c12 -14
11 -18 -10 -38 -34 -32 -61 -24 -60 17 1 18 10 45 20 59 l17 27 9 -24 c5 -14
16 -32 24 -41z m2309 -311 c-4 -13 -9 -32 -11 -43 -11 -44 -36 -92 -55 -104
-19 -11 -20 -10 -14 11 l7 23 -26 -24 c-17 -16 -49 -29 -93 -37 -118 -23 -122
-19 -41 36 40 28 101 71 136 95 61 45 62 45 62 20 0 -14 -7 -39 -15 -55 -9
-17 -13 -30 -11 -30 10 0 34 56 41 93 4 20 12 37 17 37 5 0 6 -10 3 -22z m44
-56 c26 -90 80 -121 214 -122 37 0 67 -4 67 -9 0 -9 -257 -31 -277 -24 -17 7
-21 24 -28 128 -8 95 2 105 24 27z m-209 -152 c0 -14 -56 -21 -140 -18 l-75 3
55 11 c70 15 160 17 160 4z m-115 -1521 c11 -17 -1 -21 -15 -4 -8 9 -8 15 -2
15 6 0 14 -5 17 -11z m215 -165 c63 -41 176 -105 250 -140 172 -83 279 -136
260 -130 -111 36 -391 173 -490 241 -79 54 -146 105 -138 105 2 0 55 -34 118
-76z m555 -284 c3 -6 -1 -7 -9 -4 -18 7 -21 14 -7 14 6 0 13 -4 16 -10z
m-4018 -472 c18 -21 18 -21 -7 -15 -14 4 -36 7 -49 7 -18 0 -21 3 -13 13 17
20 48 18 69 -5z m-332 -204 c6 -8 34 -12 77 -11 45 1 69 -2 72 -10 3 -6 -3
-14 -12 -16 -13 -4 -11 -5 5 -6 12 0 23 5 26 12 4 10 7 10 18 0 8 -9 9 -13 2
-13 -7 0 -14 -9 -18 -20 -4 -12 -19 -22 -41 -26 -19 -3 -34 -10 -34 -15 0 -5
-9 -9 -21 -9 -13 0 -18 -4 -13 -12 4 -7 3 -8 -5 -4 -12 8 -41 -15 -41 -32 0
-20 -33 -22 -58 -4 -15 11 -49 24 -77 30 -88 18 -155 46 -150 61 3 7 1 19 -4
25 -5 6 -5 21 0 34 7 18 14 22 29 17 12 -4 26 -2 33 3 27 23 193 20 212 -4z
m135 -114 c0 -5 -7 -10 -16 -10 -8 0 -12 5 -9 10 3 6 10 10 16 10 5 0 9 -4 9
-10z m1509 -148 c-35 -33 -95 -86 -133 -118 -38 -32 -83 -71 -99 -86 -17 -15
-33 -25 -35 -23 -8 8 58 72 192 186 135 114 186 142 75 41z m-845 7 c-8 -14
-24 -10 -24 6 0 9 6 12 15 9 8 -4 12 -10 9 -15z m76 -26 c-23 -9 -43 -33 -35
-41 4 -4 10 -1 12 6 6 17 65 15 99 -3 33 -17 81 -19 118 -6 16 7 26 6 28 0 2
-5 17 -4 37 3 27 10 35 10 38 1 3 -8 21 -13 44 -13 42 0 129 -35 129 -52 0 -6
7 -8 15 -4 27 10 16 -2 -47 -51 -35 -26 -93 -75 -129 -108 -36 -33 -99 -86
-140 -117 -41 -32 -90 -71 -109 -88 -19 -16 -41 -30 -48 -30 -6 0 -36 24 -65
54 -30 29 -63 59 -75 65 -32 17 -29 45 3 39 20 -4 23 -3 14 8 -13 16 -39 19
-39 4 0 -20 -26 -9 -50 20 -14 17 -30 30 -37 30 -7 0 -13 5 -13 10 0 6 7 10
15 10 8 0 15 -3 15 -7 0 -10 52 -35 58 -28 6 5 -170 180 -182 180 -8 0 -24 29
-25 48 -1 4 6 7 14 7 8 0 15 -7 15 -16 0 -8 5 -12 11 -8 6 3 21 1 33 -5 15 -8
29 -9 46 -2 18 7 20 10 8 10 -27 1 -22 19 13 52 32 30 49 36 49 19 0 -17 119
-12 136 5 9 8 25 15 37 14 15 0 17 -2 7 -6z m-390 -163 c12 -8 11 -10 -7 -10
-13 0 -23 5 -23 10 0 13 11 13 30 0z m130 -93 c0 -4 -16 0 -36 8 -20 8 -38 15
-40 15 -2 0 -4 9 -4 20 0 19 3 18 40 -8 21 -15 39 -30 40 -35z m346 -335 c-57
-54 -269 -222 -275 -217 -8 9 34 48 163 151 130 104 186 137 112 66z m-87 2
c-22 -25 -276 -234 -338 -279 -35 -25 -163 -127 -177 -140 -6 -5 -28 -23 -49
-40 -21 -16 -50 -39 -64 -51 -14 -11 -57 -42 -96 -67 -38 -26 -119 -81 -178
-122 -59 -41 -113 -75 -120 -75 -6 0 0 8 13 17 14 9 31 23 38 30 8 7 57 44
110 82 54 38 122 89 153 113 31 23 130 99 220 167 90 68 217 167 282 220 108
88 216 170 226 171 3 0 -6 -12 -20 -26z m-1057 -857 c-12 -14 -62 -49 -207
-143 -108 -70 -339 -189 -398 -204 -23 -6 -51 -14 -62 -17 -41 -11 -3 10 107
61 120 55 341 179 473 264 78 51 108 65 87 39z"/>
<path d="M5361 8084 c0 -11 3 -14 6 -6 3 7 2 16 -1 19 -3 4 -6 -2 -5 -13z"/>
<path d="M3810 7851 c0 -3 11 -22 23 -41 13 -19 32 -52 42 -73 20 -43 63 -70
103 -65 24 3 27 7 26 39 -1 45 -34 93 -71 106 -79 28 -123 40 -123 34z"/>
<path d="M3816 7732 c-3 -5 -1 -36 4 -68 6 -32 10 -63 10 -69 0 -5 4 -3 10 5
7 12 14 12 43 2 18 -7 36 -12 40 -12 5 0 -74 123 -93 143 -4 5 -10 4 -14 -1z"/>
<path d="M4978 7723 c7 -3 16 -2 19 1 4 3 -2 6 -13 5 -11 0 -14 -3 -6 -6z"/>
<path d="M3853 7454 c6 -52 97 -308 117 -328 8 -8 10 -7 6 4 -2 8 -17 58 -31
110 -26 94 -82 250 -92 260 -3 3 -3 -18 0 -46z"/>
<path d="M3990 7061 c0 -6 4 -13 10 -16 6 -3 7 1 4 9 -7 18 -14 21 -14 7z"/>
<path d="M4040 6934 c0 -18 33 -109 37 -99 2 6 -6 33 -17 60 -10 28 -19 45
-20 39z"/>
<path d="M4087 6799 c4 -13 8 -18 11 -10 2 7 -1 18 -6 23 -8 8 -9 4 -5 -13z"/>
<path d="M2861 6443 c-18 -14 -46 -43 -61 -64 -125 -173 -394 -462 -550 -590
-160 -132 -472 -324 -730 -447 -301 -144 -529 -311 -581 -425 -39 -86 50 -71
256 41 111 61 111 64 0 26 -95 -33 -145 -42 -145 -26 0 5 15 23 34 40 30 27
36 29 47 16 24 -29 85 -9 404 131 17 7 71 30 120 50 141 58 338 159 433 221
118 78 287 242 269 261 -6 6 -105 -45 -174 -89 -206 -132 -329 -200 -352 -196
-9 2 29 30 84 63 103 61 267 183 464 346 192 159 230 189 241 189 44 0 -56
-175 -191 -335 -35 -41 -30 -38 30 20 146 141 259 289 348 455 85 159 139 340
101 340 -7 0 -28 -12 -47 -27z"/>
<path d="M5002 6180 c7 -11 16 -20 20 -20 5 0 3 9 -4 20 -7 11 -16 20 -20 20
-5 0 -3 -9 4 -20z"/>
<path d="M2655 5289 c-11 -11 -39 -37 -62 -58 -47 -43 -54 -61 -24 -61 18 0
71 52 71 69 0 4 10 12 23 18 12 6 23 20 24 32 2 25 -5 25 -32 0z"/>
<path d="M5715 5254 c56 -43 261 -128 297 -122 20 3 18 6 -18 25 -61 32 -264
113 -283 113 -13 -1 -13 -3 4 -16z"/>
<path d="M2430 5085 c0 -8 5 -15 10 -15 6 0 10 7 10 15 0 8 -4 15 -10 15 -5 0
-10 -7 -10 -15z"/>
<path d="M830 4715 c0 -13 4 -14 23 -4 33 17 33 19 4 19 -18 0 -27 -5 -27 -15z"/>
<path d="M955 4720 c-8 -13 5 -13 25 0 13 8 13 10 -2 10 -9 0 -20 -4 -23 -10z"/>
<path d="M880 4692 c-33 -16 -35 -19 -32 -62 5 -77 36 -132 44 -78 4 33 43 48
128 49 132 2 135 17 3 18 -74 1 -124 5 -128 12 -12 18 4 55 27 67 14 6 17 11
8 11 -8 1 -31 -7 -50 -17z"/>
<path d="M970 4559 c-29 -12 -40 -27 -39 -54 0 -18 1 -18 11 3 16 31 42 35
195 30 109 -5 132 -3 121 7 -17 17 -253 28 -288 14z"/>
<path d="M1111 4489 c31 -4 108 -21 172 -37 65 -17 117 -28 117 -27 0 2 -15
13 -33 24 -36 22 -194 52 -267 50 l-45 -1 56 -9z"/>
<path d="M1154 4349 c-3 -6 -1 -16 5 -23 6 -7 8 -15 5 -18 -16 -16 231 -171
371 -233 179 -79 423 -204 543 -279 68 -42 128 -76 133 -76 5 0 9 -4 9 -10 0
-5 3 -9 8 -8 4 1 27 -8 52 -19 63 -28 100 -36 100 -22 0 55 -205 234 -385 337
-55 31 -306 152 -316 152 -4 0 -20 6 -36 14 -15 8 -44 21 -63 29 -19 8 -100
43 -180 78 -158 68 -237 93 -246 78z"/>
<path d="M6315 4173 c-60 -31 -185 -91 -277 -134 -232 -109 -385 -205 -503
-314 l-50 -47 40 23 c22 13 60 37 85 54 74 52 244 147 440 247 199 101 307
163 355 203 17 13 28 24 25 24 -3 0 -54 -25 -115 -56z"/>
<path d="M2245 3593 c6 -5 35 -29 65 -52 l55 -43 -45 42 c-25 22 -54 46 -65
52 -11 6 -15 6 -10 1z"/>
<path d="M2917 3593 c-12 -12 -8 -20 36 -69 64 -74 85 -94 97 -94 5 0 10 -5
10 -11 0 -5 -5 -7 -11 -3 -6 3 -4 -5 5 -19 10 -14 26 -27 38 -30 12 -4 18 -11
15 -20 -4 -10 1 -13 19 -9 29 5 30 16 4 45 -11 12 -18 27 -15 35 2 7 0 10 -5
7 -6 -3 -10 1 -10 10 0 11 -5 15 -14 12 -8 -3 -13 1 -12 11 0 9 -9 21 -21 27
-13 5 -23 13 -23 18 0 4 -11 12 -25 17 -14 5 -25 16 -25 25 0 8 -4 15 -10 15
-5 0 -10 10 -10 23 -1 20 -2 21 -14 5 -16 -22 -27 -23 -20 -3 6 16 2 20 -9 8z"/>
<path d="M3120 3316 c0 -8 14 -24 30 -36 17 -12 30 -26 30 -32 0 -6 -7 -5 -17
3 -15 13 -15 12 -5 -8 7 -12 17 -25 23 -29 6 -3 17 -22 25 -40 13 -30 17 -33
39 -24 20 7 25 6 25 -5 0 -8 5 -15 10 -15 6 0 4 13 -5 30 -9 17 -19 30 -23 30
-4 0 -13 14 -21 31 -7 17 -24 41 -37 54 -13 13 -24 31 -24 40 0 9 -9 15 -25
15 -15 0 -25 -6 -25 -14z"/>
<path d="M3235 3131 c-3 -5 -1 -12 5 -16 5 -3 10 1 10 9 0 18 -6 21 -15 7z"/>
<path d="M3257 3096 c-4 -10 -3 -15 3 -11 6 3 10 -1 10 -9 0 -9 5 -16 11 -16
6 0 9 6 6 14 -3 8 -1 17 6 19 7 2 4 3 -5 2 -9 -2 -19 2 -21 8 -2 6 -6 3 -10
-7z"/>
<path d="M2296 2858 c6 -141 2 -178 -20 -178 -6 0 -18 -17 -25 -37 -24 -69
-50 -101 -103 -127 -29 -14 -46 -26 -39 -26 28 0 83 35 116 73 23 26 35 35 35
24 0 -29 -63 -90 -120 -115 -37 -16 -80 -25 -130 -28 -52 -3 -69 -1 -55 5 l20
10 -20 -1 c-24 0 -74 -15 -60 -18 6 -1 21 -4 35 -6 14 -2 67 -11 118 -19 97
-16 132 -29 169 -64 50 -47 78 -149 88 -319 8 -119 25 -164 25 -63 0 33 7 113
15 178 19 145 46 210 103 248 42 28 164 57 290 70 39 4 72 12 72 17 0 6 -15 8
-37 4 -75 -11 -248 -25 -341 -27 -82 -1 -97 1 -109 17 -10 13 -13 72 -14 238
-1 122 -5 235 -10 251 -5 18 -6 -26 -3 -107z"/>
<path d="M3365 2867 c17 -66 32 -99 39 -82 3 9 6 29 5 43 0 15 -3 21 -6 14 -7
-17 -23 -5 -23 18 0 10 -5 22 -10 25 -7 4 -9 -2 -5 -18z"/>
<path d="M3391 2874 c0 -11 3 -14 6 -6 3 7 2 16 -1 19 -3 4 -6 -2 -5 -13z"/>
<path d="M2814 2860 c3 -8 9 -23 12 -32 4 -10 10 -18 16 -18 9 0 0 20 -22 50
-10 13 -11 13 -6 0z"/>
<path d="M2840 2792 c0 -4 4 -12 9 -17 5 -6 28 -55 51 -110 23 -55 48 -114 55
-130 8 -17 35 -87 60 -155 26 -69 60 -161 77 -205 17 -44 40 -107 53 -140 20
-56 81 -178 72 -145 -113 401 -230 701 -348 888 -14 22 -29 29 -29 14z"/>
<path d="M2272 2720 c0 -14 2 -19 5 -12 2 6 2 18 0 25 -3 6 -5 1 -5 -13z"/>
<path d="M3416 2732 c-3 -5 1 -9 9 -9 8 0 12 4 9 9 -3 4 -7 8 -9 8 -2 0 -6 -4
-9 -8z"/>
<path d="M2332 2710 c0 -14 2 -19 5 -12 2 6 2 18 0 25 -3 6 -5 1 -5 -13z"/>
<path d="M2340 2640 c0 -34 44 -96 82 -116 18 -9 62 -18 98 -20 36 -1 54 -1
40 2 -14 3 -48 9 -77 15 -59 12 -96 43 -124 104 -16 34 -19 36 -19 15z"/>
<path d="M3451 2628 c0 -13 5 -32 10 -43 7 -15 8 -10 4 17 -5 31 -3 37 10 32
8 -3 15 -1 15 5 0 6 -9 11 -20 11 -14 0 -20 -6 -19 -22z"/>
<path d="M2633 2493 c15 -2 37 -2 50 0 12 2 0 4 -28 4 -27 0 -38 -2 -22 -4z"/>
<path d="M2045 2480 c-13 -5 -14 -9 -5 -9 8 0 24 4 35 9 13 5 14 9 5 9 -8 0
-24 -4 -35 -9z"/>
<path d="M1988 2463 c6 -2 18 -2 25 0 6 3 1 5 -13 5 -14 0 -19 -2 -12 -5z"/>
<path d="M3364 2140 c-48 -19 -68 -127 -40 -219 l13 -45 7 34 c8 41 42 80 69
80 11 0 37 -5 58 -12 22 -6 42 -9 45 -6 7 7 -34 148 -48 166 -12 14 -72 15
-104 2z"/>
<path d="M3601 1975 c-5 -49 40 -278 59 -298 11 -12 23 11 22 43 -1 25 -38
148 -62 205 -5 11 -11 29 -13 40 -3 11 -5 15 -6 10z"/>
<path d="M3422 1828 c-16 -16 -15 -98 1 -137 l13 -32 11 24 c19 41 46 39 111
-8 32 -23 73 -50 92 -60 l33 -17 -21 29 c-32 42 -163 177 -192 196 -29 20 -32
21 -48 5z"/>
</g>
</svg>
